<?xml version="1.0" encoding="utf-8" standalone="no"?>
<!DOCTYPE svg PUBLIC "-//W3C//DTD SVG 1.1//EN"
  "http://www.w3.org/Graphics/SVG/1.1/DTD/svg11.dtd">
<svg xmlns:xlink="http://www.w3.org/1999/xlink" width="902.4825pt" height="385.023855pt" viewBox="0 0 902.4825 385.023855" xmlns="http://www.w3.org/2000/svg" version="1.1">
 <metadata>
  <rdf:RDF xmlns:dc="http://purl.org/dc/elements/1.1/" xmlns:cc="http://creativecommons.org/ns#" xmlns:rdf="http://www.w3.org/1999/02/22-rdf-syntax-ns#">
   <cc:Work>
    <dc:type rdf:resource="http://purl.org/dc/dcmitype/StillImage"/>
    <dc:date>2023-02-13T14:59:36.919217</dc:date>
    <dc:format>image/svg+xml</dc:format>
    <dc:creator>
     <cc:Agent>
      <dc:title>Matplotlib v3.6.2, https://matplotlib.org/</dc:title>
     </cc:Agent>
    </dc:creator>
   </cc:Work>
  </rdf:RDF>
 </metadata>
 <defs>
  <style type="text/css">*{stroke-linejoin: round; stroke-linecap: butt}</style>
 </defs>
 <g id="figure_1">
  <g id="patch_1">
   <path d="M 0 385.023855 
L 902.4825 385.023855 
L 902.4825 0 
L 0 0 
z
" style="fill: #ffffff"/>
  </g>
  <g id="axes_1">
   <g id="patch_2">
    <path d="M 58.2825 311.13125 
L 895.2825 311.13125 
L 895.2825 33.93125 
L 58.2825 33.93125 
z
" style="fill: #ffffff"/>
   </g>
   <g id="matplotlib.axis_1">
    <g id="xtick_1">
     <g id="line2d_1">
      <defs>
       <path id="mb09b5cfb17" d="M 0 0 
L 0 3.5 
" style="stroke: #0e2356; stroke-width: 0.8"/>
      </defs>
      <g>
       <use xlink:href="#mb09b5cfb17" x="96.327955" y="311.13125" style="fill: #0e2356; stroke: #0e2356; stroke-width: 0.8"/>
      </g>
     </g>
     <g id="text_1">
      <!-- 00:00 -->
      <g style="fill: #0e2356" transform="translate(87.812842 346.205599) rotate(-45) scale(0.12 -0.12)">
       <defs>
        <path id="Lato-Regular-30" d="M 3520 2291 
Q 3520 1690 3390 1250 
Q 3261 810 3037 522 
Q 2813 234 2507 93 
Q 2202 -48 1853 -48 
Q 1501 -48 1198 93 
Q 896 234 672 522 
Q 448 810 320 1250 
Q 192 1690 192 2291 
Q 192 2893 320 3334 
Q 448 3776 672 4065 
Q 896 4355 1198 4496 
Q 1501 4637 1853 4637 
Q 2202 4637 2507 4496 
Q 2813 4355 3037 4065 
Q 3261 3776 3390 3334 
Q 3520 2893 3520 2291 
z
M 2928 2291 
Q 2928 2816 2840 3173 
Q 2752 3530 2603 3747 
Q 2454 3965 2259 4059 
Q 2064 4154 1853 4154 
Q 1642 4154 1446 4059 
Q 1251 3965 1104 3747 
Q 957 3530 869 3173 
Q 781 2816 781 2291 
Q 781 1766 869 1411 
Q 957 1056 1104 838 
Q 1251 621 1446 526 
Q 1642 432 1853 432 
Q 2064 432 2259 526 
Q 2454 621 2603 838 
Q 2752 1056 2840 1411 
Q 2928 1766 2928 2291 
z
" transform="scale(0.015625)"/>
        <path id="Lato-Regular-3a" d="M 410 352 
Q 410 435 440 508 
Q 470 582 523 636 
Q 576 691 649 723 
Q 723 755 806 755 
Q 890 755 963 723 
Q 1037 691 1091 636 
Q 1146 582 1176 508 
Q 1206 435 1206 352 
Q 1206 266 1176 194 
Q 1146 122 1091 67 
Q 1037 13 963 -17 
Q 890 -48 806 -48 
Q 723 -48 649 -17 
Q 576 13 523 67 
Q 470 122 440 194 
Q 410 266 410 352 
z
M 410 2752 
Q 410 2835 440 2908 
Q 470 2982 523 3036 
Q 576 3091 649 3123 
Q 723 3155 806 3155 
Q 890 3155 963 3123 
Q 1037 3091 1091 3036 
Q 1146 2982 1176 2908 
Q 1206 2835 1206 2752 
Q 1206 2666 1176 2594 
Q 1146 2522 1091 2467 
Q 1037 2413 963 2382 
Q 890 2352 806 2352 
Q 723 2352 649 2382 
Q 576 2413 523 2467 
Q 470 2522 440 2594 
Q 410 2666 410 2752 
z
" transform="scale(0.015625)"/>
       </defs>
       <use xlink:href="#Lato-Regular-30"/>
       <use xlink:href="#Lato-Regular-30" x="58"/>
       <use xlink:href="#Lato-Regular-3a" x="116"/>
       <use xlink:href="#Lato-Regular-30" x="141.199997"/>
       <use xlink:href="#Lato-Regular-30" x="199.199997"/>
      </g>
     </g>
    </g>
    <g id="xtick_2">
     <g id="line2d_2">
      <g>
       <use xlink:href="#mb09b5cfb17" x="128.0325" y="311.13125" style="fill: #0e2356; stroke: #0e2356; stroke-width: 0.8"/>
      </g>
     </g>
     <g id="text_2">
      <!-- 01:00 -->
      <g style="fill: #0e2356" transform="translate(119.517388 346.205599) rotate(-45) scale(0.12 -0.12)">
       <defs>
        <path id="Lato-Regular-31" d="M 918 435 
L 1904 435 
L 1904 3562 
Q 1904 3702 1914 3846 
L 1094 3146 
Q 1062 3120 1030 3109 
Q 998 3098 970 3098 
Q 922 3098 883 3118 
Q 845 3139 826 3168 
L 646 3414 
L 2010 4595 
L 2474 4595 
L 2474 435 
L 3376 435 
L 3376 0 
L 918 0 
L 918 435 
z
" transform="scale(0.015625)"/>
       </defs>
       <use xlink:href="#Lato-Regular-30"/>
       <use xlink:href="#Lato-Regular-31" x="58"/>
       <use xlink:href="#Lato-Regular-3a" x="116"/>
       <use xlink:href="#Lato-Regular-30" x="141.199997"/>
       <use xlink:href="#Lato-Regular-30" x="199.199997"/>
      </g>
     </g>
    </g>
    <g id="xtick_3">
     <g id="line2d_3">
      <g>
       <use xlink:href="#mb09b5cfb17" x="159.737045" y="311.13125" style="fill: #0e2356; stroke: #0e2356; stroke-width: 0.8"/>
      </g>
     </g>
     <g id="text_3">
      <!-- 02:00 -->
      <g style="fill: #0e2356" transform="translate(151.221933 346.205599) rotate(-45) scale(0.12 -0.12)">
       <defs>
        <path id="Lato-Regular-32" d="M 1923 4637 
Q 2214 4637 2467 4550 
Q 2720 4464 2904 4299 
Q 3088 4134 3193 3897 
Q 3299 3661 3299 3360 
Q 3299 3104 3222 2886 
Q 3146 2669 3014 2469 
Q 2883 2269 2712 2081 
Q 2541 1894 2349 1699 
L 1142 464 
Q 1270 499 1401 520 
Q 1533 541 1654 541 
L 3190 541 
Q 3283 541 3337 486 
Q 3392 432 3392 346 
L 3392 0 
L 333 0 
L 333 195 
Q 333 256 357 320 
Q 381 384 435 438 
L 1904 1914 
Q 2086 2099 2236 2270 
Q 2387 2442 2494 2614 
Q 2602 2787 2659 2964 
Q 2717 3142 2717 3344 
Q 2717 3546 2653 3698 
Q 2589 3850 2477 3949 
Q 2365 4048 2214 4097 
Q 2064 4147 1891 4147 
Q 1718 4147 1571 4096 
Q 1424 4045 1310 3953 
Q 1197 3862 1118 3737 
Q 1040 3613 1008 3462 
Q 982 3370 931 3328 
Q 880 3286 797 3286 
Q 781 3286 763 3288 
Q 746 3290 723 3293 
L 426 3344 
Q 470 3658 598 3899 
Q 726 4141 923 4304 
Q 1120 4467 1374 4552 
Q 1629 4637 1923 4637 
z
" transform="scale(0.015625)"/>
       </defs>
       <use xlink:href="#Lato-Regular-30"/>
       <use xlink:href="#Lato-Regular-32" x="58"/>
       <use xlink:href="#Lato-Regular-3a" x="116"/>
       <use xlink:href="#Lato-Regular-30" x="141.199997"/>
       <use xlink:href="#Lato-Regular-30" x="199.199997"/>
      </g>
     </g>
    </g>
    <g id="xtick_4">
     <g id="line2d_4">
      <g>
       <use xlink:href="#mb09b5cfb17" x="191.441591" y="311.13125" style="fill: #0e2356; stroke: #0e2356; stroke-width: 0.8"/>
      </g>
     </g>
     <g id="text_4">
      <!-- 03:00 -->
      <g style="fill: #0e2356" transform="translate(182.926478 346.205599) rotate(-45) scale(0.12 -0.12)">
       <defs>
        <path id="Lato-Regular-33" d="M 1984 4637 
Q 2275 4637 2521 4553 
Q 2768 4470 2945 4316 
Q 3123 4163 3222 3945 
Q 3322 3728 3322 3462 
Q 3322 3245 3266 3073 
Q 3210 2902 3106 2772 
Q 3002 2643 2854 2553 
Q 2707 2464 2525 2410 
Q 2973 2291 3198 2012 
Q 3424 1734 3424 1315 
Q 3424 998 3304 745 
Q 3184 493 2976 315 
Q 2768 138 2491 43 
Q 2214 -51 1898 -51 
Q 1533 -51 1273 40 
Q 1014 131 835 291 
Q 656 451 541 670 
Q 426 890 346 1146 
L 589 1248 
Q 656 1277 723 1277 
Q 787 1277 836 1249 
Q 886 1222 912 1165 
Q 918 1152 924 1137 
Q 931 1123 938 1107 
Q 982 1014 1046 897 
Q 1110 781 1219 678 
Q 1328 576 1489 505 
Q 1651 435 1891 435 
Q 2131 435 2312 513 
Q 2493 592 2613 717 
Q 2733 842 2793 995 
Q 2854 1149 2854 1299 
Q 2854 1485 2804 1638 
Q 2755 1792 2625 1904 
Q 2496 2016 2267 2080 
Q 2038 2144 1680 2144 
L 1680 2557 
Q 1971 2560 2177 2621 
Q 2384 2682 2515 2787 
Q 2646 2893 2705 3040 
Q 2765 3187 2765 3366 
Q 2765 3565 2702 3712 
Q 2640 3859 2531 3955 
Q 2422 4051 2273 4099 
Q 2125 4147 1952 4147 
Q 1779 4147 1632 4096 
Q 1485 4045 1371 3953 
Q 1258 3862 1181 3736 
Q 1104 3610 1066 3462 
Q 1040 3370 989 3328 
Q 938 3286 858 3286 
Q 842 3286 824 3288 
Q 806 3290 784 3293 
L 486 3344 
Q 531 3658 659 3899 
Q 787 4141 984 4304 
Q 1181 4467 1435 4552 
Q 1690 4637 1984 4637 
z
" transform="scale(0.015625)"/>
       </defs>
       <use xlink:href="#Lato-Regular-30"/>
       <use xlink:href="#Lato-Regular-33" x="58"/>
       <use xlink:href="#Lato-Regular-3a" x="116"/>
       <use xlink:href="#Lato-Regular-30" x="141.199997"/>
       <use xlink:href="#Lato-Regular-30" x="199.199997"/>
      </g>
     </g>
    </g>
    <g id="xtick_5">
     <g id="line2d_5">
      <g>
       <use xlink:href="#mb09b5cfb17" x="223.146136" y="311.13125" style="fill: #0e2356; stroke: #0e2356; stroke-width: 0.8"/>
      </g>
     </g>
     <g id="text_5">
      <!-- 04:00 -->
      <g style="fill: #0e2356" transform="translate(214.631024 346.205599) rotate(-45) scale(0.12 -0.12)">
       <defs>
        <path id="Lato-Regular-34" d="M 2890 1654 
L 3584 1654 
L 3584 1328 
Q 3584 1277 3553 1241 
Q 3523 1206 3459 1206 
L 2890 1206 
L 2890 0 
L 2387 0 
L 2387 1206 
L 355 1206 
Q 291 1206 244 1243 
Q 198 1280 186 1334 
L 128 1626 
L 2358 4586 
L 2890 4586 
L 2890 1654 
z
M 2387 3546 
Q 2387 3629 2392 3725 
Q 2397 3821 2413 3923 
L 746 1654 
L 2387 1654 
L 2387 3546 
z
" transform="scale(0.015625)"/>
       </defs>
       <use xlink:href="#Lato-Regular-30"/>
       <use xlink:href="#Lato-Regular-34" x="58"/>
       <use xlink:href="#Lato-Regular-3a" x="116"/>
       <use xlink:href="#Lato-Regular-30" x="141.199997"/>
       <use xlink:href="#Lato-Regular-30" x="199.199997"/>
      </g>
     </g>
    </g>
    <g id="xtick_6">
     <g id="line2d_6">
      <g>
       <use xlink:href="#mb09b5cfb17" x="254.850682" y="311.13125" style="fill: #0e2356; stroke: #0e2356; stroke-width: 0.8"/>
      </g>
     </g>
     <g id="text_6">
      <!-- 05:00 -->
      <g style="fill: #0e2356" transform="translate(246.335569 346.205599) rotate(-45) scale(0.12 -0.12)">
       <defs>
        <path id="Lato-Regular-35" d="M 3130 4336 
Q 3130 4214 3053 4136 
Q 2976 4058 2794 4058 
L 1354 4058 
L 1142 2854 
Q 1501 2931 1805 2931 
Q 2163 2931 2436 2825 
Q 2710 2720 2896 2534 
Q 3082 2349 3176 2096 
Q 3270 1843 3270 1546 
Q 3270 1181 3142 886 
Q 3014 592 2792 382 
Q 2570 173 2269 61 
Q 1968 -51 1619 -51 
Q 1418 -51 1232 -11 
Q 1046 29 886 96 
Q 726 163 588 249 
Q 451 336 346 432 
L 518 675 
Q 576 758 672 758 
Q 733 758 814 708 
Q 896 659 1011 598 
Q 1126 538 1281 488 
Q 1437 438 1651 438 
Q 1891 438 2083 515 
Q 2275 592 2411 734 
Q 2547 877 2620 1075 
Q 2694 1274 2694 1520 
Q 2694 1734 2632 1907 
Q 2570 2080 2443 2201 
Q 2317 2323 2128 2390 
Q 1939 2458 1686 2458 
Q 1514 2458 1328 2429 
Q 1142 2400 944 2336 
L 586 2442 
L 957 4586 
L 3130 4586 
L 3130 4336 
z
" transform="scale(0.015625)"/>
       </defs>
       <use xlink:href="#Lato-Regular-30"/>
       <use xlink:href="#Lato-Regular-35" x="58"/>
       <use xlink:href="#Lato-Regular-3a" x="116"/>
       <use xlink:href="#Lato-Regular-30" x="141.199997"/>
       <use xlink:href="#Lato-Regular-30" x="199.199997"/>
      </g>
     </g>
    </g>
    <g id="xtick_7">
     <g id="line2d_7">
      <g>
       <use xlink:href="#mb09b5cfb17" x="286.555227" y="311.13125" style="fill: #0e2356; stroke: #0e2356; stroke-width: 0.8"/>
      </g>
     </g>
     <g id="text_7">
      <!-- 06:00 -->
      <g style="fill: #0e2356" transform="translate(278.040115 346.205599) rotate(-45) scale(0.12 -0.12)">
       <defs>
        <path id="Lato-Regular-36" d="M 2080 2810 
Q 2355 2810 2601 2718 
Q 2848 2627 3033 2452 
Q 3219 2278 3328 2024 
Q 3437 1770 3437 1443 
Q 3437 1126 3321 854 
Q 3206 582 3000 380 
Q 2794 179 2502 64 
Q 2211 -51 1862 -51 
Q 1517 -51 1237 59 
Q 957 170 758 373 
Q 560 576 453 865 
Q 346 1155 346 1514 
Q 346 1814 480 2153 
Q 614 2493 906 2883 
L 2067 4448 
Q 2112 4506 2192 4546 
Q 2272 4586 2374 4586 
L 2880 4586 
L 1290 2573 
Q 1453 2685 1651 2747 
Q 1850 2810 2080 2810 
z
M 896 1414 
Q 896 1194 960 1011 
Q 1024 829 1147 697 
Q 1270 566 1448 494 
Q 1626 422 1853 422 
Q 2083 422 2268 496 
Q 2454 570 2587 701 
Q 2720 832 2792 1011 
Q 2864 1190 2864 1402 
Q 2864 1626 2793 1806 
Q 2723 1987 2595 2113 
Q 2467 2240 2288 2307 
Q 2109 2374 1894 2374 
Q 1664 2374 1478 2296 
Q 1293 2218 1163 2085 
Q 1034 1952 965 1777 
Q 896 1603 896 1414 
z
" transform="scale(0.015625)"/>
       </defs>
       <use xlink:href="#Lato-Regular-30"/>
       <use xlink:href="#Lato-Regular-36" x="58"/>
       <use xlink:href="#Lato-Regular-3a" x="116"/>
       <use xlink:href="#Lato-Regular-30" x="141.199997"/>
       <use xlink:href="#Lato-Regular-30" x="199.199997"/>
      </g>
     </g>
    </g>
    <g id="xtick_8">
     <g id="line2d_8">
      <g>
       <use xlink:href="#mb09b5cfb17" x="318.259773" y="311.13125" style="fill: #0e2356; stroke: #0e2356; stroke-width: 0.8"/>
      </g>
     </g>
     <g id="text_8">
      <!-- 07:00 -->
      <g style="fill: #0e2356" transform="translate(309.74466 346.205599) rotate(-45) scale(0.12 -0.12)">
       <defs>
        <path id="Lato-Regular-37" d="M 3469 4586 
L 3469 4330 
Q 3469 4221 3445 4150 
Q 3421 4080 3395 4032 
L 1498 202 
Q 1456 118 1382 59 
Q 1309 0 1184 0 
L 778 0 
L 2704 3782 
Q 2746 3862 2789 3929 
Q 2832 3997 2886 4058 
L 493 4058 
Q 438 4058 395 4101 
Q 352 4144 352 4198 
L 352 4586 
L 3469 4586 
z
" transform="scale(0.015625)"/>
       </defs>
       <use xlink:href="#Lato-Regular-30"/>
       <use xlink:href="#Lato-Regular-37" x="58"/>
       <use xlink:href="#Lato-Regular-3a" x="116"/>
       <use xlink:href="#Lato-Regular-30" x="141.199997"/>
       <use xlink:href="#Lato-Regular-30" x="199.199997"/>
      </g>
     </g>
    </g>
    <g id="xtick_9">
     <g id="line2d_9">
      <g>
       <use xlink:href="#mb09b5cfb17" x="349.964318" y="311.13125" style="fill: #0e2356; stroke: #0e2356; stroke-width: 0.8"/>
      </g>
     </g>
     <g id="text_9">
      <!-- 08:00 -->
      <g style="fill: #0e2356" transform="translate(341.449206 346.205599) rotate(-45) scale(0.12 -0.12)">
       <defs>
        <path id="Lato-Regular-38" d="M 1853 -51 
Q 1510 -51 1225 40 
Q 941 131 736 300 
Q 531 470 419 712 
Q 307 954 307 1254 
Q 307 1696 537 1982 
Q 768 2269 1197 2390 
Q 835 2525 651 2792 
Q 467 3059 467 3430 
Q 467 3683 566 3904 
Q 666 4125 848 4288 
Q 1030 4451 1284 4544 
Q 1539 4637 1853 4637 
Q 2163 4637 2419 4544 
Q 2675 4451 2857 4288 
Q 3040 4125 3139 3904 
Q 3238 3683 3238 3430 
Q 3238 3059 3052 2792 
Q 2867 2525 2509 2390 
Q 2938 2269 3168 1982 
Q 3398 1696 3398 1254 
Q 3398 954 3284 712 
Q 3171 470 2968 300 
Q 2765 131 2480 40 
Q 2195 -51 1853 -51 
z
M 1853 403 
Q 2077 403 2254 465 
Q 2432 528 2555 641 
Q 2678 755 2744 913 
Q 2810 1072 2810 1264 
Q 2810 1501 2731 1669 
Q 2653 1837 2520 1942 
Q 2387 2048 2214 2097 
Q 2042 2147 1853 2147 
Q 1664 2147 1491 2097 
Q 1318 2048 1185 1942 
Q 1053 1837 974 1669 
Q 896 1501 896 1264 
Q 896 1072 961 913 
Q 1027 755 1150 641 
Q 1274 528 1451 465 
Q 1629 403 1853 403 
z
M 1853 2605 
Q 2077 2605 2235 2673 
Q 2394 2742 2493 2856 
Q 2592 2970 2637 3117 
Q 2682 3264 2682 3421 
Q 2682 3581 2629 3721 
Q 2576 3862 2472 3968 
Q 2368 4074 2213 4134 
Q 2058 4195 1853 4195 
Q 1648 4195 1493 4134 
Q 1338 4074 1234 3968 
Q 1130 3862 1077 3721 
Q 1024 3581 1024 3421 
Q 1024 3264 1069 3117 
Q 1114 2970 1213 2856 
Q 1312 2742 1470 2673 
Q 1629 2605 1853 2605 
z
" transform="scale(0.015625)"/>
       </defs>
       <use xlink:href="#Lato-Regular-30"/>
       <use xlink:href="#Lato-Regular-38" x="58"/>
       <use xlink:href="#Lato-Regular-3a" x="116"/>
       <use xlink:href="#Lato-Regular-30" x="141.199997"/>
       <use xlink:href="#Lato-Regular-30" x="199.199997"/>
      </g>
     </g>
    </g>
    <g id="xtick_10">
     <g id="line2d_10">
      <g>
       <use xlink:href="#mb09b5cfb17" x="381.668864" y="311.13125" style="fill: #0e2356; stroke: #0e2356; stroke-width: 0.8"/>
      </g>
     </g>
     <g id="text_10">
      <!-- 09:00 -->
      <g style="fill: #0e2356" transform="translate(373.153751 346.205599) rotate(-45) scale(0.12 -0.12)">
       <defs>
        <path id="Lato-Regular-39" d="M 1757 1882 
Q 1498 1882 1266 1968 
Q 1034 2054 858 2222 
Q 682 2390 578 2635 
Q 474 2880 474 3197 
Q 474 3498 586 3760 
Q 698 4022 899 4217 
Q 1101 4413 1379 4525 
Q 1658 4637 1990 4637 
Q 2320 4637 2589 4528 
Q 2858 4419 3050 4224 
Q 3242 4029 3346 3757 
Q 3450 3485 3450 3155 
Q 3450 2957 3413 2779 
Q 3376 2602 3305 2432 
Q 3235 2262 3137 2094 
Q 3040 1926 2915 1747 
L 1798 134 
Q 1757 74 1680 37 
Q 1603 0 1504 0 
L 979 0 
L 2374 1827 
Q 2445 1920 2505 2003 
Q 2566 2086 2621 2170 
Q 2445 2029 2224 1955 
Q 2003 1882 1757 1882 
z
M 2902 3222 
Q 2902 3437 2833 3611 
Q 2765 3786 2643 3907 
Q 2522 4029 2354 4094 
Q 2186 4160 1984 4160 
Q 1773 4160 1598 4091 
Q 1424 4022 1301 3900 
Q 1178 3779 1110 3609 
Q 1043 3440 1043 3238 
Q 1043 3021 1105 2849 
Q 1168 2678 1285 2560 
Q 1402 2442 1570 2381 
Q 1738 2320 1946 2320 
Q 2176 2320 2353 2395 
Q 2531 2470 2652 2595 
Q 2774 2720 2838 2883 
Q 2902 3046 2902 3222 
z
" transform="scale(0.015625)"/>
       </defs>
       <use xlink:href="#Lato-Regular-30"/>
       <use xlink:href="#Lato-Regular-39" x="58"/>
       <use xlink:href="#Lato-Regular-3a" x="116"/>
       <use xlink:href="#Lato-Regular-30" x="141.199997"/>
       <use xlink:href="#Lato-Regular-30" x="199.199997"/>
      </g>
     </g>
    </g>
    <g id="xtick_11">
     <g id="line2d_11">
      <g>
       <use xlink:href="#mb09b5cfb17" x="413.373409" y="311.13125" style="fill: #0e2356; stroke: #0e2356; stroke-width: 0.8"/>
      </g>
     </g>
     <g id="text_11">
      <!-- 10:00 -->
      <g style="fill: #0e2356" transform="translate(404.858297 346.205599) rotate(-45) scale(0.12 -0.12)">
       <use xlink:href="#Lato-Regular-31"/>
       <use xlink:href="#Lato-Regular-30" x="58"/>
       <use xlink:href="#Lato-Regular-3a" x="116"/>
       <use xlink:href="#Lato-Regular-30" x="141.199997"/>
       <use xlink:href="#Lato-Regular-30" x="199.199997"/>
      </g>
     </g>
    </g>
    <g id="xtick_12">
     <g id="line2d_12">
      <g>
       <use xlink:href="#mb09b5cfb17" x="445.077955" y="311.13125" style="fill: #0e2356; stroke: #0e2356; stroke-width: 0.8"/>
      </g>
     </g>
     <g id="text_12">
      <!-- 11:00 -->
      <g style="fill: #0e2356" transform="translate(436.562842 346.205599) rotate(-45) scale(0.12 -0.12)">
       <use xlink:href="#Lato-Regular-31"/>
       <use xlink:href="#Lato-Regular-31" x="58"/>
       <use xlink:href="#Lato-Regular-3a" x="116"/>
       <use xlink:href="#Lato-Regular-30" x="141.199997"/>
       <use xlink:href="#Lato-Regular-30" x="199.199997"/>
      </g>
     </g>
    </g>
    <g id="xtick_13">
     <g id="line2d_13">
      <g>
       <use xlink:href="#mb09b5cfb17" x="476.7825" y="311.13125" style="fill: #0e2356; stroke: #0e2356; stroke-width: 0.8"/>
      </g>
     </g>
     <g id="text_13">
      <!-- 12:00 -->
      <g style="fill: #0e2356" transform="translate(468.267388 346.205599) rotate(-45) scale(0.12 -0.12)">
       <use xlink:href="#Lato-Regular-31"/>
       <use xlink:href="#Lato-Regular-32" x="58"/>
       <use xlink:href="#Lato-Regular-3a" x="116"/>
       <use xlink:href="#Lato-Regular-30" x="141.199997"/>
       <use xlink:href="#Lato-Regular-30" x="199.199997"/>
      </g>
     </g>
    </g>
    <g id="xtick_14">
     <g id="line2d_14">
      <g>
       <use xlink:href="#mb09b5cfb17" x="508.487045" y="311.13125" style="fill: #0e2356; stroke: #0e2356; stroke-width: 0.8"/>
      </g>
     </g>
     <g id="text_14">
      <!-- 13:00 -->
      <g style="fill: #0e2356" transform="translate(499.971933 346.205599) rotate(-45) scale(0.12 -0.12)">
       <use xlink:href="#Lato-Regular-31"/>
       <use xlink:href="#Lato-Regular-33" x="58"/>
       <use xlink:href="#Lato-Regular-3a" x="116"/>
       <use xlink:href="#Lato-Regular-30" x="141.199997"/>
       <use xlink:href="#Lato-Regular-30" x="199.199997"/>
      </g>
     </g>
    </g>
    <g id="xtick_15">
     <g id="line2d_15">
      <g>
       <use xlink:href="#mb09b5cfb17" x="540.191591" y="311.13125" style="fill: #0e2356; stroke: #0e2356; stroke-width: 0.8"/>
      </g>
     </g>
     <g id="text_15">
      <!-- 14:00 -->
      <g style="fill: #0e2356" transform="translate(531.676478 346.205599) rotate(-45) scale(0.12 -0.12)">
       <use xlink:href="#Lato-Regular-31"/>
       <use xlink:href="#Lato-Regular-34" x="58"/>
       <use xlink:href="#Lato-Regular-3a" x="116"/>
       <use xlink:href="#Lato-Regular-30" x="141.199997"/>
       <use xlink:href="#Lato-Regular-30" x="199.199997"/>
      </g>
     </g>
    </g>
    <g id="xtick_16">
     <g id="line2d_16">
      <g>
       <use xlink:href="#mb09b5cfb17" x="571.896136" y="311.13125" style="fill: #0e2356; stroke: #0e2356; stroke-width: 0.8"/>
      </g>
     </g>
     <g id="text_16">
      <!-- 15:00 -->
      <g style="fill: #0e2356" transform="translate(563.381024 346.205599) rotate(-45) scale(0.12 -0.12)">
       <use xlink:href="#Lato-Regular-31"/>
       <use xlink:href="#Lato-Regular-35" x="58"/>
       <use xlink:href="#Lato-Regular-3a" x="116"/>
       <use xlink:href="#Lato-Regular-30" x="141.199997"/>
       <use xlink:href="#Lato-Regular-30" x="199.199997"/>
      </g>
     </g>
    </g>
    <g id="xtick_17">
     <g id="line2d_17">
      <g>
       <use xlink:href="#mb09b5cfb17" x="603.600682" y="311.13125" style="fill: #0e2356; stroke: #0e2356; stroke-width: 0.8"/>
      </g>
     </g>
     <g id="text_17">
      <!-- 16:00 -->
      <g style="fill: #0e2356" transform="translate(595.085569 346.205599) rotate(-45) scale(0.12 -0.12)">
       <use xlink:href="#Lato-Regular-31"/>
       <use xlink:href="#Lato-Regular-36" x="58"/>
       <use xlink:href="#Lato-Regular-3a" x="116"/>
       <use xlink:href="#Lato-Regular-30" x="141.199997"/>
       <use xlink:href="#Lato-Regular-30" x="199.199997"/>
      </g>
     </g>
    </g>
    <g id="xtick_18">
     <g id="line2d_18">
      <g>
       <use xlink:href="#mb09b5cfb17" x="635.305227" y="311.13125" style="fill: #0e2356; stroke: #0e2356; stroke-width: 0.8"/>
      </g>
     </g>
     <g id="text_18">
      <!-- 17:00 -->
      <g style="fill: #0e2356" transform="translate(626.790115 346.205599) rotate(-45) scale(0.12 -0.12)">
       <use xlink:href="#Lato-Regular-31"/>
       <use xlink:href="#Lato-Regular-37" x="58"/>
       <use xlink:href="#Lato-Regular-3a" x="116"/>
       <use xlink:href="#Lato-Regular-30" x="141.199997"/>
       <use xlink:href="#Lato-Regular-30" x="199.199997"/>
      </g>
     </g>
    </g>
    <g id="xtick_19">
     <g id="line2d_19">
      <g>
       <use xlink:href="#mb09b5cfb17" x="667.009773" y="311.13125" style="fill: #0e2356; stroke: #0e2356; stroke-width: 0.8"/>
      </g>
     </g>
     <g id="text_19">
      <!-- 18:00 -->
      <g style="fill: #0e2356" transform="translate(658.49466 346.205599) rotate(-45) scale(0.12 -0.12)">
       <use xlink:href="#Lato-Regular-31"/>
       <use xlink:href="#Lato-Regular-38" x="58"/>
       <use xlink:href="#Lato-Regular-3a" x="116"/>
       <use xlink:href="#Lato-Regular-30" x="141.199997"/>
       <use xlink:href="#Lato-Regular-30" x="199.199997"/>
      </g>
     </g>
    </g>
    <g id="xtick_20">
     <g id="line2d_20">
      <g>
       <use xlink:href="#mb09b5cfb17" x="698.714318" y="311.13125" style="fill: #0e2356; stroke: #0e2356; stroke-width: 0.8"/>
      </g>
     </g>
     <g id="text_20">
      <!-- 19:00 -->
      <g style="fill: #0e2356" transform="translate(690.199206 346.205599) rotate(-45) scale(0.12 -0.12)">
       <use xlink:href="#Lato-Regular-31"/>
       <use xlink:href="#Lato-Regular-39" x="58"/>
       <use xlink:href="#Lato-Regular-3a" x="116"/>
       <use xlink:href="#Lato-Regular-30" x="141.199997"/>
       <use xlink:href="#Lato-Regular-30" x="199.199997"/>
      </g>
     </g>
    </g>
    <g id="xtick_21">
     <g id="line2d_21">
      <g>
       <use xlink:href="#mb09b5cfb17" x="730.418864" y="311.13125" style="fill: #0e2356; stroke: #0e2356; stroke-width: 0.8"/>
      </g>
     </g>
     <g id="text_21">
      <!-- 20:00 -->
      <g style="fill: #0e2356" transform="translate(721.903751 346.205599) rotate(-45) scale(0.12 -0.12)">
       <use xlink:href="#Lato-Regular-32"/>
       <use xlink:href="#Lato-Regular-30" x="58"/>
       <use xlink:href="#Lato-Regular-3a" x="116"/>
       <use xlink:href="#Lato-Regular-30" x="141.199997"/>
       <use xlink:href="#Lato-Regular-30" x="199.199997"/>
      </g>
     </g>
    </g>
    <g id="xtick_22">
     <g id="line2d_22">
      <g>
       <use xlink:href="#mb09b5cfb17" x="762.123409" y="311.13125" style="fill: #0e2356; stroke: #0e2356; stroke-width: 0.8"/>
      </g>
     </g>
     <g id="text_22">
      <!-- 21:00 -->
      <g style="fill: #0e2356" transform="translate(753.608297 346.205599) rotate(-45) scale(0.12 -0.12)">
       <use xlink:href="#Lato-Regular-32"/>
       <use xlink:href="#Lato-Regular-31" x="58"/>
       <use xlink:href="#Lato-Regular-3a" x="116"/>
       <use xlink:href="#Lato-Regular-30" x="141.199997"/>
       <use xlink:href="#Lato-Regular-30" x="199.199997"/>
      </g>
     </g>
    </g>
    <g id="xtick_23">
     <g id="line2d_23">
      <g>
       <use xlink:href="#mb09b5cfb17" x="793.827955" y="311.13125" style="fill: #0e2356; stroke: #0e2356; stroke-width: 0.8"/>
      </g>
     </g>
     <g id="text_23">
      <!-- 22:00 -->
      <g style="fill: #0e2356" transform="translate(785.312842 346.205599) rotate(-45) scale(0.12 -0.12)">
       <use xlink:href="#Lato-Regular-32"/>
       <use xlink:href="#Lato-Regular-32" x="58"/>
       <use xlink:href="#Lato-Regular-3a" x="116"/>
       <use xlink:href="#Lato-Regular-30" x="141.199997"/>
       <use xlink:href="#Lato-Regular-30" x="199.199997"/>
      </g>
     </g>
    </g>
    <g id="xtick_24">
     <g id="line2d_24">
      <g>
       <use xlink:href="#mb09b5cfb17" x="825.5325" y="311.13125" style="fill: #0e2356; stroke: #0e2356; stroke-width: 0.8"/>
      </g>
     </g>
     <g id="text_24">
      <!-- 23:00 -->
      <g style="fill: #0e2356" transform="translate(817.017388 346.205599) rotate(-45) scale(0.12 -0.12)">
       <use xlink:href="#Lato-Regular-32"/>
       <use xlink:href="#Lato-Regular-33" x="58"/>
       <use xlink:href="#Lato-Regular-3a" x="116"/>
       <use xlink:href="#Lato-Regular-30" x="141.199997"/>
       <use xlink:href="#Lato-Regular-30" x="199.199997"/>
      </g>
     </g>
    </g>
    <g id="xtick_25">
     <g id="line2d_25">
      <g>
       <use xlink:href="#mb09b5cfb17" x="857.237045" y="311.13125" style="fill: #0e2356; stroke: #0e2356; stroke-width: 0.8"/>
      </g>
     </g>
     <g id="text_25">
      <!-- 00:00 -->
      <g style="fill: #0e2356" transform="translate(848.721933 346.205599) rotate(-45) scale(0.12 -0.12)">
       <use xlink:href="#Lato-Regular-30"/>
       <use xlink:href="#Lato-Regular-30" x="58"/>
       <use xlink:href="#Lato-Regular-3a" x="116"/>
       <use xlink:href="#Lato-Regular-30" x="141.199997"/>
       <use xlink:href="#Lato-Regular-30" x="199.199997"/>
      </g>
     </g>
    </g>
    <g id="text_26">
     <!-- Uhrzeit -->
     <g style="fill: #0e2356" transform="translate(443.743438 374.392605) scale(0.2 -0.2)">
      <defs>
       <path id="Lato-Regular-55" d="M 2339 493 
Q 2624 493 2848 589 
Q 3072 685 3227 857 
Q 3382 1030 3464 1270 
Q 3546 1510 3546 1798 
L 3546 4586 
L 4163 4586 
L 4163 1798 
Q 4163 1402 4036 1062 
Q 3910 723 3675 475 
Q 3440 227 3101 86 
Q 2762 -54 2339 -54 
Q 1917 -54 1577 86 
Q 1238 227 1001 475 
Q 765 723 638 1062 
Q 512 1402 512 1798 
L 512 4586 
L 1130 4586 
L 1130 1802 
Q 1130 1514 1211 1274 
Q 1293 1034 1448 861 
Q 1603 688 1828 590 
Q 2054 493 2339 493 
z
" transform="scale(0.015625)"/>
       <path id="Lato-Regular-68" d="M 467 0 
L 467 4714 
L 1037 4714 
L 1037 2806 
Q 1245 3027 1497 3160 
Q 1750 3293 2080 3293 
Q 2346 3293 2549 3205 
Q 2752 3117 2888 2955 
Q 3024 2794 3094 2566 
Q 3165 2339 3165 2064 
L 3165 0 
L 2595 0 
L 2595 2064 
Q 2595 2432 2427 2635 
Q 2259 2838 1914 2838 
Q 1661 2838 1441 2716 
Q 1222 2595 1037 2387 
L 1037 0 
L 467 0 
z
" transform="scale(0.015625)"/>
       <path id="Lato-Regular-72" d="M 467 0 
L 467 3242 
L 794 3242 
Q 886 3242 921 3206 
Q 957 3171 970 3085 
L 1008 2579 
Q 1174 2918 1419 3108 
Q 1664 3299 1994 3299 
Q 2128 3299 2237 3268 
Q 2346 3238 2438 3184 
L 2365 2758 
Q 2342 2678 2266 2678 
Q 2221 2678 2128 2708 
Q 2035 2739 1869 2739 
Q 1571 2739 1371 2566 
Q 1171 2394 1037 2064 
L 1037 0 
L 467 0 
z
" transform="scale(0.015625)"/>
       <path id="Lato-Regular-7a" d="M 2730 2998 
Q 2730 2938 2707 2882 
Q 2685 2826 2650 2781 
L 896 445 
L 2666 445 
L 2666 0 
L 224 0 
L 224 237 
Q 224 278 245 334 
Q 266 390 304 442 
L 2067 2794 
L 323 2794 
L 323 3242 
L 2730 3242 
L 2730 2998 
z
" transform="scale(0.015625)"/>
       <path id="Lato-Regular-65" d="M 1750 3293 
Q 2042 3293 2288 3195 
Q 2534 3098 2713 2914 
Q 2893 2730 2993 2459 
Q 3094 2189 3094 1843 
Q 3094 1709 3065 1664 
Q 3037 1619 2957 1619 
L 800 1619 
Q 806 1312 883 1085 
Q 960 858 1094 706 
Q 1229 554 1414 478 
Q 1600 403 1830 403 
Q 2045 403 2200 452 
Q 2355 502 2467 560 
Q 2579 618 2654 667 
Q 2730 717 2784 717 
Q 2854 717 2893 662 
L 3053 454 
Q 2947 326 2800 232 
Q 2653 138 2485 77 
Q 2317 16 2137 -14 
Q 1958 -45 1782 -45 
Q 1446 -45 1163 68 
Q 880 182 673 401 
Q 467 621 352 944 
Q 237 1267 237 1686 
Q 237 2026 341 2320 
Q 445 2614 640 2830 
Q 835 3046 1116 3169 
Q 1398 3293 1750 3293 
z
M 1763 2874 
Q 1350 2874 1113 2635 
Q 877 2397 819 1974 
L 2582 1974 
Q 2582 2173 2528 2337 
Q 2474 2502 2368 2622 
Q 2262 2742 2110 2808 
Q 1958 2874 1763 2874 
z
" transform="scale(0.015625)"/>
       <path id="Lato-Regular-69" d="M 1101 3242 
L 1101 0 
L 531 0 
L 531 3242 
L 1101 3242 
z
M 1229 4259 
Q 1229 4176 1195 4104 
Q 1162 4032 1106 3976 
Q 1050 3920 976 3888 
Q 902 3856 819 3856 
Q 736 3856 664 3888 
Q 592 3920 536 3976 
Q 480 4032 448 4104 
Q 416 4176 416 4259 
Q 416 4342 448 4417 
Q 480 4493 536 4549 
Q 592 4605 664 4637 
Q 736 4669 819 4669 
Q 902 4669 976 4637 
Q 1050 4605 1106 4549 
Q 1162 4493 1195 4417 
Q 1229 4342 1229 4259 
z
" transform="scale(0.015625)"/>
       <path id="Lato-Regular-74" d="M 1450 -51 
Q 1066 -51 859 163 
Q 653 378 653 781 
L 653 2765 
L 262 2765 
Q 211 2765 176 2795 
Q 141 2826 141 2890 
L 141 3117 
L 672 3184 
L 803 4186 
Q 810 4234 845 4264 
Q 880 4294 934 4294 
L 1222 4294 
L 1222 3178 
L 2150 3178 
L 2150 2765 
L 1222 2765 
L 1222 819 
Q 1222 614 1321 515 
Q 1421 416 1578 416 
Q 1667 416 1732 440 
Q 1798 464 1846 493 
Q 1894 522 1928 546 
Q 1962 570 1987 570 
Q 2032 570 2067 515 
L 2234 243 
Q 2086 106 1878 27 
Q 1670 -51 1450 -51 
z
" transform="scale(0.015625)"/>
      </defs>
      <use xlink:href="#Lato-Regular-55"/>
      <use xlink:href="#Lato-Regular-68" x="73.000015"/>
      <use xlink:href="#Lato-Regular-72" x="128.600021"/>
      <use xlink:href="#Lato-Regular-7a" x="168.900024"/>
      <use xlink:href="#Lato-Regular-65" x="215.100021"/>
      <use xlink:href="#Lato-Regular-69" x="267.500031"/>
      <use xlink:href="#Lato-Regular-74" x="293.100037"/>
     </g>
    </g>
   </g>
   <g id="matplotlib.axis_2">
    <g id="ytick_1">
     <g id="line2d_26">
      <defs>
       <path id="mde14911045" d="M 0 0 
L -3.5 0 
" style="stroke: #0e2356; stroke-width: 0.8"/>
      </defs>
      <g>
       <use xlink:href="#mde14911045" x="58.2825" y="281.208288" style="fill: #0e2356; stroke: #0e2356; stroke-width: 0.8"/>
      </g>
     </g>
     <g id="text_27">
      <!-- 16 -->
      <g style="fill: #0e2356" transform="translate(37.3625 285.627663) scale(0.12 -0.12)">
       <use xlink:href="#Lato-Regular-31"/>
       <use xlink:href="#Lato-Regular-36" x="58"/>
      </g>
     </g>
    </g>
    <g id="ytick_2">
     <g id="line2d_27">
      <g>
       <use xlink:href="#mde14911045" x="58.2825" y="246.502821" style="fill: #0e2356; stroke: #0e2356; stroke-width: 0.8"/>
      </g>
     </g>
     <g id="text_28">
      <!-- 18 -->
      <g style="fill: #0e2356" transform="translate(37.3625 250.922196) scale(0.12 -0.12)">
       <use xlink:href="#Lato-Regular-31"/>
       <use xlink:href="#Lato-Regular-38" x="58"/>
      </g>
     </g>
    </g>
    <g id="ytick_3">
     <g id="line2d_28">
      <g>
       <use xlink:href="#mde14911045" x="58.2825" y="211.797355" style="fill: #0e2356; stroke: #0e2356; stroke-width: 0.8"/>
      </g>
     </g>
     <g id="text_29">
      <!-- 20 -->
      <g style="fill: #0e2356" transform="translate(37.3625 216.21673) scale(0.12 -0.12)">
       <use xlink:href="#Lato-Regular-32"/>
       <use xlink:href="#Lato-Regular-30" x="58"/>
      </g>
     </g>
    </g>
    <g id="ytick_4">
     <g id="line2d_29">
      <g>
       <use xlink:href="#mde14911045" x="58.2825" y="177.091889" style="fill: #0e2356; stroke: #0e2356; stroke-width: 0.8"/>
      </g>
     </g>
     <g id="text_30">
      <!-- 22 -->
      <g style="fill: #0e2356" transform="translate(37.3625 181.511264) scale(0.12 -0.12)">
       <use xlink:href="#Lato-Regular-32"/>
       <use xlink:href="#Lato-Regular-32" x="58"/>
      </g>
     </g>
    </g>
    <g id="ytick_5">
     <g id="line2d_30">
      <g>
       <use xlink:href="#mde14911045" x="58.2825" y="142.386423" style="fill: #0e2356; stroke: #0e2356; stroke-width: 0.8"/>
      </g>
     </g>
     <g id="text_31">
      <!-- 24 -->
      <g style="fill: #0e2356" transform="translate(37.3625 146.805798) scale(0.12 -0.12)">
       <use xlink:href="#Lato-Regular-32"/>
       <use xlink:href="#Lato-Regular-34" x="58"/>
      </g>
     </g>
    </g>
    <g id="ytick_6">
     <g id="line2d_31">
      <g>
       <use xlink:href="#mde14911045" x="58.2825" y="107.680956" style="fill: #0e2356; stroke: #0e2356; stroke-width: 0.8"/>
      </g>
     </g>
     <g id="text_32">
      <!-- 26 -->
      <g style="fill: #0e2356" transform="translate(37.3625 112.100331) scale(0.12 -0.12)">
       <use xlink:href="#Lato-Regular-32"/>
       <use xlink:href="#Lato-Regular-36" x="58"/>
      </g>
     </g>
    </g>
    <g id="ytick_7">
     <g id="line2d_32">
      <g>
       <use xlink:href="#mde14911045" x="58.2825" y="72.97549" style="fill: #0e2356; stroke: #0e2356; stroke-width: 0.8"/>
      </g>
     </g>
     <g id="text_33">
      <!-- 28 -->
      <g style="fill: #0e2356" transform="translate(37.3625 77.394865) scale(0.12 -0.12)">
       <use xlink:href="#Lato-Regular-32"/>
       <use xlink:href="#Lato-Regular-38" x="58"/>
      </g>
     </g>
    </g>
    <g id="ytick_8">
     <g id="line2d_33">
      <g>
       <use xlink:href="#mde14911045" x="58.2825" y="38.270024" style="fill: #0e2356; stroke: #0e2356; stroke-width: 0.8"/>
      </g>
     </g>
     <g id="text_34">
      <!-- 30 -->
      <g style="fill: #0e2356" transform="translate(37.3625 42.689399) scale(0.12 -0.12)">
       <use xlink:href="#Lato-Regular-33"/>
       <use xlink:href="#Lato-Regular-30" x="58"/>
      </g>
     </g>
    </g>
    <g id="text_35">
     <!-- Temperatrur in °C -->
     <g style="fill: #0e2356" transform="translate(21.93125 251.889063) rotate(-90) scale(0.2 -0.2)">
      <defs>
       <path id="Lato-Regular-54" d="M 3680 4586 
L 3680 4064 
L 2198 4064 
L 2198 0 
L 1578 0 
L 1578 4064 
L 90 4064 
L 90 4586 
L 3680 4586 
z
" transform="scale(0.015625)"/>
       <path id="Lato-Regular-6d" d="M 467 0 
L 467 3242 
L 806 3242 
Q 928 3242 960 3123 
L 1002 2790 
Q 1181 3011 1403 3152 
Q 1626 3293 1920 3293 
Q 2250 3293 2453 3110 
Q 2656 2928 2746 2618 
Q 2813 2794 2923 2922 
Q 3034 3050 3171 3133 
Q 3309 3216 3464 3254 
Q 3619 3293 3779 3293 
Q 4035 3293 4235 3211 
Q 4435 3130 4574 2973 
Q 4714 2816 4787 2587 
Q 4861 2358 4861 2064 
L 4861 0 
L 4291 0 
L 4291 2064 
Q 4291 2445 4124 2641 
Q 3958 2838 3642 2838 
Q 3501 2838 3374 2788 
Q 3248 2739 3152 2643 
Q 3056 2547 3000 2401 
Q 2944 2256 2944 2064 
L 2944 0 
L 2374 0 
L 2374 2064 
Q 2374 2454 2217 2646 
Q 2061 2838 1760 2838 
Q 1549 2838 1368 2724 
Q 1187 2611 1037 2416 
L 1037 0 
L 467 0 
z
" transform="scale(0.015625)"/>
       <path id="Lato-Regular-70" d="M 467 -1098 
L 467 3242 
L 806 3242 
Q 928 3242 960 3123 
L 1008 2739 
Q 1216 2992 1483 3145 
Q 1750 3299 2099 3299 
Q 2378 3299 2605 3192 
Q 2832 3085 2992 2875 
Q 3152 2666 3238 2355 
Q 3325 2045 3325 1642 
Q 3325 1283 3229 974 
Q 3133 666 2953 440 
Q 2774 214 2513 84 
Q 2253 -45 1926 -45 
Q 1626 -45 1413 54 
Q 1200 154 1037 336 
L 1037 -1098 
L 467 -1098 
z
M 1910 2838 
Q 1632 2838 1422 2710 
Q 1213 2582 1037 2349 
L 1037 781 
Q 1194 570 1381 483 
Q 1568 397 1798 397 
Q 2250 397 2493 720 
Q 2736 1043 2736 1642 
Q 2736 1958 2680 2185 
Q 2624 2413 2518 2558 
Q 2413 2704 2259 2771 
Q 2106 2838 1910 2838 
z
" transform="scale(0.015625)"/>
       <path id="Lato-Regular-61" d="M 2848 0 
L 2595 0 
Q 2512 0 2461 25 
Q 2410 51 2394 134 
L 2330 435 
Q 2202 320 2080 229 
Q 1958 138 1824 75 
Q 1690 13 1538 -19 
Q 1386 -51 1200 -51 
Q 1011 -51 846 1 
Q 682 54 560 160 
Q 438 266 366 427 
Q 294 589 294 810 
Q 294 1002 400 1179 
Q 506 1357 741 1494 
Q 976 1632 1357 1720 
Q 1738 1808 2288 1821 
L 2288 2074 
Q 2288 2451 2126 2644 
Q 1965 2838 1648 2838 
Q 1440 2838 1297 2785 
Q 1155 2733 1051 2667 
Q 947 2602 872 2549 
Q 797 2496 723 2496 
Q 666 2496 622 2526 
Q 579 2557 554 2602 
L 451 2784 
Q 720 3043 1030 3171 
Q 1341 3299 1718 3299 
Q 1990 3299 2201 3209 
Q 2413 3120 2557 2960 
Q 2701 2800 2774 2573 
Q 2848 2346 2848 2074 
L 2848 0 
z
M 1370 349 
Q 1520 349 1645 379 
Q 1770 410 1880 466 
Q 1990 522 2091 602 
Q 2192 682 2288 784 
L 2288 1459 
Q 1894 1446 1619 1396 
Q 1344 1347 1171 1267 
Q 998 1187 920 1078 
Q 842 970 842 835 
Q 842 707 883 614 
Q 925 522 995 462 
Q 1066 403 1162 376 
Q 1258 349 1370 349 
z
" transform="scale(0.015625)"/>
       <path id="Lato-Regular-75" d="M 960 3242 
L 960 1174 
Q 960 806 1129 604 
Q 1299 403 1642 403 
Q 1891 403 2112 521 
Q 2333 640 2518 851 
L 2518 3242 
L 3088 3242 
L 3088 0 
L 2749 0 
Q 2627 0 2595 118 
L 2550 467 
Q 2339 234 2076 91 
Q 1814 -51 1475 -51 
Q 1210 -51 1006 37 
Q 803 125 665 285 
Q 528 445 459 672 
Q 390 899 390 1174 
L 390 3242 
L 960 3242 
z
" transform="scale(0.015625)"/>
       <path id="Lato-Regular-20" transform="scale(0.015625)"/>
       <path id="Lato-Regular-6e" d="M 467 0 
L 467 3242 
L 806 3242 
Q 928 3242 960 3123 
L 1005 2771 
Q 1216 3005 1477 3149 
Q 1738 3293 2080 3293 
Q 2346 3293 2549 3205 
Q 2752 3117 2888 2955 
Q 3024 2794 3094 2566 
Q 3165 2339 3165 2064 
L 3165 0 
L 2595 0 
L 2595 2064 
Q 2595 2432 2427 2635 
Q 2259 2838 1914 2838 
Q 1661 2838 1441 2716 
Q 1222 2595 1037 2387 
L 1037 0 
L 467 0 
z
" transform="scale(0.015625)"/>
       <path id="Lato-Regular-b0" d="M 224 3610 
Q 224 3824 304 4013 
Q 384 4202 525 4341 
Q 666 4480 856 4560 
Q 1046 4640 1267 4640 
Q 1488 4640 1678 4560 
Q 1869 4480 2009 4341 
Q 2150 4202 2230 4013 
Q 2310 3824 2310 3610 
Q 2310 3398 2230 3211 
Q 2150 3024 2009 2885 
Q 1869 2746 1678 2664 
Q 1488 2582 1267 2582 
Q 1046 2582 856 2664 
Q 666 2746 525 2885 
Q 384 3024 304 3211 
Q 224 3398 224 3610 
z
M 630 3606 
Q 630 3472 678 3355 
Q 726 3238 812 3152 
Q 899 3066 1016 3016 
Q 1133 2966 1267 2966 
Q 1402 2966 1517 3016 
Q 1632 3066 1718 3152 
Q 1805 3238 1853 3355 
Q 1901 3472 1901 3606 
Q 1901 3741 1853 3859 
Q 1805 3978 1718 4066 
Q 1632 4154 1517 4203 
Q 1402 4253 1267 4253 
Q 1133 4253 1016 4203 
Q 899 4154 812 4066 
Q 726 3978 678 3859 
Q 630 3741 630 3606 
z
" transform="scale(0.015625)"/>
       <path id="Lato-Regular-43" d="M 3789 947 
Q 3840 947 3882 906 
L 4125 640 
Q 3843 314 3441 131 
Q 3040 -51 2474 -51 
Q 1978 -51 1574 120 
Q 1171 291 886 600 
Q 602 909 445 1341 
Q 288 1773 288 2291 
Q 288 2810 456 3242 
Q 624 3674 928 3984 
Q 1232 4294 1656 4465 
Q 2080 4637 2592 4637 
Q 3098 4637 3464 4480 
Q 3830 4323 4115 4054 
L 3914 3770 
Q 3891 3738 3862 3717 
Q 3834 3696 3779 3696 
Q 3738 3696 3691 3726 
Q 3645 3757 3581 3801 
Q 3517 3846 3430 3897 
Q 3344 3949 3225 3993 
Q 3107 4038 2950 4068 
Q 2794 4099 2589 4099 
Q 2221 4099 1915 3972 
Q 1610 3846 1389 3612 
Q 1168 3379 1045 3043 
Q 922 2707 922 2291 
Q 922 1862 1045 1526 
Q 1168 1190 1381 958 
Q 1594 726 1885 604 
Q 2176 483 2512 483 
Q 2717 483 2880 507 
Q 3043 531 3182 582 
Q 3322 634 3442 712 
Q 3562 790 3683 899 
Q 3738 947 3789 947 
z
" transform="scale(0.015625)"/>
      </defs>
      <use xlink:href="#Lato-Regular-54"/>
      <use xlink:href="#Lato-Regular-65" x="59"/>
      <use xlink:href="#Lato-Regular-6d" x="111.400009"/>
      <use xlink:href="#Lato-Regular-70" x="193.500015"/>
      <use xlink:href="#Lato-Regular-65" x="248.700027"/>
      <use xlink:href="#Lato-Regular-72" x="301.100037"/>
      <use xlink:href="#Lato-Regular-61" x="341.40004"/>
      <use xlink:href="#Lato-Regular-74" x="392.100052"/>
      <use xlink:href="#Lato-Regular-72" x="429.400055"/>
      <use xlink:href="#Lato-Regular-75" x="469.700058"/>
      <use xlink:href="#Lato-Regular-72" x="525.300064"/>
      <use xlink:href="#Lato-Regular-20" x="565.600067"/>
      <use xlink:href="#Lato-Regular-69" x="584.90007"/>
      <use xlink:href="#Lato-Regular-6e" x="610.500076"/>
      <use xlink:href="#Lato-Regular-20" x="666.100082"/>
      <use xlink:href="#Lato-Regular-b0" x="685.400085"/>
      <use xlink:href="#Lato-Regular-43" x="725.100082"/>
     </g>
    </g>
   </g>
   <g id="line2d_34">
    <path d="M 96.327955 190.013947 
L 128.0325 111.06704 
L 159.737045 298.53125 
L 191.441591 219.866574 
L 223.146136 260.361784 
L 254.850682 274.526116 
L 286.555227 250.079165 
L 318.259773 208.614675 
L 349.964318 195.286019 
L 381.668864 158.311876 
L 413.373409 189.448463 
L 445.077955 120.204554 
L 476.7825 245.343941 
L 508.487045 69.994958 
L 540.191591 291.432277 
L 571.896136 124.044364 
L 603.600682 189.940338 
L 635.305227 153.139088 
L 667.009773 262.019565 
L 698.714318 246.996987 
L 730.418864 90.134419 
L 762.123409 46.53125 
L 793.827955 216.979529 
L 825.5325 118.355677 
L 857.237045 70.444815 
" clip-path="url(#p1e3701ad86)" style="fill: none; stroke: #008052; stroke-width: 1.5; stroke-linecap: square"/>
   </g>
   <g id="patch_3">
    <path d="M 58.2825 311.13125 
L 58.2825 33.93125 
" style="fill: none; stroke: #0e2356; stroke-width: 0.8; stroke-linejoin: miter; stroke-linecap: square"/>
   </g>
   <g id="patch_4">
    <path d="M 895.2825 311.13125 
L 895.2825 33.93125 
" style="fill: none; stroke: #0e2356; stroke-width: 0.8; stroke-linejoin: miter; stroke-linecap: square"/>
   </g>
   <g id="patch_5">
    <path d="M 58.2825 311.13125 
L 895.2825 311.13125 
" style="fill: none; stroke: #0e2356; stroke-width: 0.8; stroke-linejoin: miter; stroke-linecap: square"/>
   </g>
   <g id="patch_6">
    <path d="M 58.2825 33.93125 
L 895.2825 33.93125 
" style="fill: none; stroke: #0e2356; stroke-width: 0.8; stroke-linejoin: miter; stroke-linecap: square"/>
   </g>
   <g id="text_36">
    <!-- Werte eines Temperatursensors innerhalb eines Tages -->
    <g style="fill: #0e2356" transform="translate(239.491875 21.93125) scale(0.2 -0.2)">
     <defs>
      <path id="Lato-Regular-57" d="M 45 4586 
L 560 4586 
Q 643 4586 697 4544 
Q 752 4502 771 4438 
L 1718 1251 
Q 1744 1165 1765 1065 
Q 1786 966 1805 858 
Q 1827 966 1849 1067 
Q 1872 1168 1901 1251 
L 2979 4438 
Q 2998 4493 3054 4539 
Q 3110 4586 3190 4586 
L 3370 4586 
Q 3453 4586 3505 4544 
Q 3558 4502 3581 4438 
L 4653 1251 
Q 4710 1085 4755 870 
Q 4774 976 4790 1072 
Q 4806 1168 4832 1251 
L 5782 4438 
Q 5798 4496 5854 4541 
Q 5910 4586 5990 4586 
L 6474 4586 
L 5043 0 
L 4486 0 
L 3325 3498 
Q 3290 3597 3261 3728 
Q 3245 3664 3230 3605 
Q 3216 3546 3200 3498 
L 2032 0 
L 1475 0 
L 45 4586 
z
" transform="scale(0.015625)"/>
      <path id="Lato-Regular-73" d="M 2323 2707 
Q 2285 2637 2205 2637 
Q 2157 2637 2096 2672 
Q 2035 2707 1947 2750 
Q 1859 2794 1737 2830 
Q 1616 2867 1450 2867 
Q 1306 2867 1190 2830 
Q 1075 2794 993 2730 
Q 912 2666 869 2581 
Q 826 2496 826 2397 
Q 826 2272 898 2189 
Q 970 2106 1088 2045 
Q 1206 1984 1356 1937 
Q 1507 1891 1665 1838 
Q 1824 1786 1974 1722 
Q 2125 1658 2243 1562 
Q 2362 1466 2434 1326 
Q 2506 1187 2506 992 
Q 2506 768 2426 577 
Q 2346 387 2189 248 
Q 2032 109 1805 29 
Q 1578 -51 1280 -51 
Q 941 -51 665 59 
Q 390 170 198 342 
L 333 560 
Q 358 602 393 624 
Q 429 646 486 646 
Q 544 646 608 601 
Q 672 557 763 502 
Q 854 448 984 403 
Q 1114 358 1309 358 
Q 1475 358 1600 401 
Q 1725 445 1808 518 
Q 1891 592 1931 688 
Q 1971 784 1971 893 
Q 1971 1027 1899 1115 
Q 1827 1203 1708 1265 
Q 1590 1328 1438 1374 
Q 1286 1421 1128 1472 
Q 970 1523 818 1588 
Q 666 1654 547 1753 
Q 429 1853 357 1998 
Q 285 2144 285 2352 
Q 285 2538 361 2709 
Q 438 2880 585 3009 
Q 733 3139 947 3216 
Q 1162 3293 1437 3293 
Q 1757 3293 2011 3192 
Q 2266 3091 2451 2915 
L 2323 2707 
z
" transform="scale(0.015625)"/>
      <path id="Lato-Regular-6f" d="M 1779 3293 
Q 2134 3293 2420 3174 
Q 2707 3056 2907 2838 
Q 3107 2621 3214 2312 
Q 3322 2003 3322 1622 
Q 3322 1238 3214 931 
Q 3107 624 2907 406 
Q 2707 189 2420 72 
Q 2134 -45 1779 -45 
Q 1424 -45 1137 72 
Q 851 189 649 406 
Q 448 624 339 931 
Q 230 1238 230 1622 
Q 230 2003 339 2312 
Q 448 2621 649 2838 
Q 851 3056 1137 3174 
Q 1424 3293 1779 3293 
z
M 1779 400 
Q 2259 400 2496 721 
Q 2733 1043 2733 1619 
Q 2733 2198 2496 2521 
Q 2259 2845 1779 2845 
Q 1536 2845 1357 2761 
Q 1178 2678 1058 2521 
Q 938 2365 878 2136 
Q 819 1907 819 1619 
Q 819 1331 878 1104 
Q 938 877 1058 721 
Q 1178 566 1357 483 
Q 1536 400 1779 400 
z
" transform="scale(0.015625)"/>
      <path id="Lato-Regular-6c" d="M 1101 4714 
L 1101 0 
L 531 0 
L 531 4714 
L 1101 4714 
z
" transform="scale(0.015625)"/>
      <path id="Lato-Regular-62" d="M 486 0 
L 486 4714 
L 1059 4714 
L 1059 2774 
Q 1261 3008 1521 3150 
Q 1782 3293 2118 3293 
Q 2400 3293 2627 3187 
Q 2854 3082 3014 2872 
Q 3174 2662 3260 2353 
Q 3347 2045 3347 1642 
Q 3347 1283 3251 974 
Q 3155 666 2974 440 
Q 2794 214 2533 84 
Q 2272 -45 1946 -45 
Q 1632 -45 1413 76 
Q 1194 198 1030 416 
L 1002 122 
Q 976 0 854 0 
L 486 0 
z
M 1933 2838 
Q 1654 2838 1444 2710 
Q 1235 2582 1059 2349 
L 1059 781 
Q 1213 570 1400 483 
Q 1587 397 1818 397 
Q 2272 397 2515 720 
Q 2758 1043 2758 1642 
Q 2758 1958 2702 2185 
Q 2646 2413 2540 2558 
Q 2435 2704 2281 2771 
Q 2128 2838 1933 2838 
z
" transform="scale(0.015625)"/>
      <path id="Lato-Regular-67" d="M 1558 3296 
Q 1770 3296 1954 3249 
Q 2138 3203 2288 3114 
L 3168 3114 
L 3168 2902 
Q 3168 2797 3034 2768 
L 2666 2717 
Q 2774 2509 2774 2253 
Q 2774 2016 2683 1822 
Q 2592 1629 2430 1491 
Q 2269 1354 2046 1280 
Q 1824 1206 1558 1206 
Q 1331 1206 1130 1261 
Q 1027 1197 974 1123 
Q 922 1050 922 979 
Q 922 864 1014 805 
Q 1107 746 1260 720 
Q 1414 694 1609 688 
Q 1805 682 2008 667 
Q 2211 653 2406 617 
Q 2602 582 2755 502 
Q 2909 422 3001 281 
Q 3094 141 3094 -83 
Q 3094 -291 2990 -486 
Q 2886 -682 2691 -834 
Q 2496 -986 2214 -1077 
Q 1933 -1168 1578 -1168 
Q 1222 -1168 955 -1097 
Q 688 -1027 512 -908 
Q 336 -790 248 -635 
Q 160 -480 160 -310 
Q 160 -70 312 98 
Q 464 266 730 365 
Q 592 429 510 536 
Q 429 643 429 822 
Q 429 893 454 968 
Q 480 1043 533 1116 
Q 586 1190 662 1257 
Q 739 1325 842 1376 
Q 602 1510 466 1732 
Q 330 1955 330 2253 
Q 330 2490 421 2683 
Q 512 2877 675 3013 
Q 838 3149 1064 3222 
Q 1290 3296 1558 3296 
z
M 2570 -176 
Q 2570 -54 2502 19 
Q 2435 93 2320 133 
Q 2205 173 2054 192 
Q 1904 211 1737 219 
Q 1571 227 1398 236 
Q 1226 246 1069 272 
Q 886 186 772 61 
Q 659 -64 659 -237 
Q 659 -346 715 -440 
Q 771 -534 886 -603 
Q 1002 -672 1176 -712 
Q 1350 -752 1587 -752 
Q 1818 -752 2000 -710 
Q 2182 -669 2308 -592 
Q 2435 -515 2502 -409 
Q 2570 -304 2570 -176 
z
M 1558 1584 
Q 1731 1584 1864 1632 
Q 1997 1680 2086 1766 
Q 2176 1853 2221 1973 
Q 2266 2093 2266 2237 
Q 2266 2534 2085 2710 
Q 1904 2886 1558 2886 
Q 1216 2886 1035 2710 
Q 854 2534 854 2237 
Q 854 2093 900 1973 
Q 947 1853 1036 1766 
Q 1126 1680 1257 1632 
Q 1389 1584 1558 1584 
z
" transform="scale(0.015625)"/>
     </defs>
     <use xlink:href="#Lato-Regular-57"/>
     <use xlink:href="#Lato-Regular-65" x="101.900024"/>
     <use xlink:href="#Lato-Regular-72" x="154.300034"/>
     <use xlink:href="#Lato-Regular-74" x="194.600037"/>
     <use xlink:href="#Lato-Regular-65" x="231.90004"/>
     <use xlink:href="#Lato-Regular-20" x="284.300049"/>
     <use xlink:href="#Lato-Regular-65" x="303.600052"/>
     <use xlink:href="#Lato-Regular-69" x="356.000061"/>
     <use xlink:href="#Lato-Regular-6e" x="381.600067"/>
     <use xlink:href="#Lato-Regular-65" x="437.200073"/>
     <use xlink:href="#Lato-Regular-73" x="489.600082"/>
     <use xlink:href="#Lato-Regular-20" x="533.000092"/>
     <use xlink:href="#Lato-Regular-54" x="552.300095"/>
     <use xlink:href="#Lato-Regular-65" x="611.300095"/>
     <use xlink:href="#Lato-Regular-6d" x="663.700104"/>
     <use xlink:href="#Lato-Regular-70" x="745.80011"/>
     <use xlink:href="#Lato-Regular-65" x="801.000122"/>
     <use xlink:href="#Lato-Regular-72" x="853.400131"/>
     <use xlink:href="#Lato-Regular-61" x="893.700134"/>
     <use xlink:href="#Lato-Regular-74" x="944.400146"/>
     <use xlink:href="#Lato-Regular-75" x="981.70015"/>
     <use xlink:href="#Lato-Regular-72" x="1037.300156"/>
     <use xlink:href="#Lato-Regular-73" x="1077.600159"/>
     <use xlink:href="#Lato-Regular-65" x="1121.000168"/>
     <use xlink:href="#Lato-Regular-6e" x="1173.400177"/>
     <use xlink:href="#Lato-Regular-73" x="1229.000183"/>
     <use xlink:href="#Lato-Regular-6f" x="1272.400192"/>
     <use xlink:href="#Lato-Regular-72" x="1328.000198"/>
     <use xlink:href="#Lato-Regular-73" x="1368.300201"/>
     <use xlink:href="#Lato-Regular-20" x="1411.700211"/>
     <use xlink:href="#Lato-Regular-69" x="1431.000214"/>
     <use xlink:href="#Lato-Regular-6e" x="1456.60022"/>
     <use xlink:href="#Lato-Regular-6e" x="1512.200226"/>
     <use xlink:href="#Lato-Regular-65" x="1567.800232"/>
     <use xlink:href="#Lato-Regular-72" x="1620.200241"/>
     <use xlink:href="#Lato-Regular-68" x="1660.500244"/>
     <use xlink:href="#Lato-Regular-61" x="1716.10025"/>
     <use xlink:href="#Lato-Regular-6c" x="1766.800262"/>
     <use xlink:href="#Lato-Regular-62" x="1792.400269"/>
     <use xlink:href="#Lato-Regular-20" x="1848.300278"/>
     <use xlink:href="#Lato-Regular-65" x="1867.600281"/>
     <use xlink:href="#Lato-Regular-69" x="1920.00029"/>
     <use xlink:href="#Lato-Regular-6e" x="1945.600296"/>
     <use xlink:href="#Lato-Regular-65" x="2001.200302"/>
     <use xlink:href="#Lato-Regular-73" x="2053.600311"/>
     <use xlink:href="#Lato-Regular-20" x="2097.00032"/>
     <use xlink:href="#Lato-Regular-54" x="2116.300323"/>
     <use xlink:href="#Lato-Regular-61" x="2175.300323"/>
     <use xlink:href="#Lato-Regular-67" x="2226.000336"/>
     <use xlink:href="#Lato-Regular-65" x="2277.100342"/>
     <use xlink:href="#Lato-Regular-73" x="2329.500351"/>
    </g>
   </g>
  </g>
 </g>
 <defs>
  <clipPath id="p1e3701ad86">
   <rect x="58.2825" y="33.93125" width="837" height="277.2"/>
  </clipPath>
 </defs>
</svg>
