<?xml version="1.0" encoding="utf-8" standalone="no"?>
<!DOCTYPE svg PUBLIC "-//W3C//DTD SVG 1.1//EN"
  "http://www.w3.org/Graphics/SVG/1.1/DTD/svg11.dtd">
<svg xmlns:xlink="http://www.w3.org/1999/xlink" width="909.66125pt" height="366.39125pt" viewBox="0 0 909.66125 366.39125" xmlns="http://www.w3.org/2000/svg" version="1.1">
 <metadata>
  <rdf:RDF xmlns:dc="http://purl.org/dc/elements/1.1/" xmlns:cc="http://creativecommons.org/ns#" xmlns:rdf="http://www.w3.org/1999/02/22-rdf-syntax-ns#">
   <cc:Work>
    <dc:type rdf:resource="http://purl.org/dc/dcmitype/StillImage"/>
    <dc:date>2023-02-13T11:31:30.934947</dc:date>
    <dc:format>image/svg+xml</dc:format>
    <dc:creator>
     <cc:Agent>
      <dc:title>Matplotlib v3.6.2, https://matplotlib.org/</dc:title>
     </cc:Agent>
    </dc:creator>
   </cc:Work>
  </rdf:RDF>
 </metadata>
 <defs>
  <style type="text/css">*{stroke-linejoin: round; stroke-linecap: butt}</style>
 </defs>
 <g id="figure_1">
  <g id="patch_1">
   <path d="M 0 366.39125 
L 909.66125 366.39125 
L 909.66125 -0 
L 0 -0 
z
" style="fill: #ffffff"/>
  </g>
  <g id="axes_1">
   <g id="patch_2">
    <path d="M 65.46125 311.13125 
L 902.46125 311.13125 
L 902.46125 33.93125 
L 65.46125 33.93125 
z
" style="fill: #ffffff"/>
   </g>
   <g id="matplotlib.axis_1">
    <g id="xtick_1">
     <g id="line2d_1">
      <defs>
       <path id="mf004cb4d10" d="M 0 0 
L 0 3.5 
" style="stroke: #000000; stroke-width: 0.8"/>
      </defs>
      <g>
       <use xlink:href="#mf004cb4d10" x="100.961858" y="311.13125" style="stroke: #000000; stroke-width: 0.8"/>
      </g>
     </g>
     <g id="text_1">
      <!-- 0 -->
      <g transform="translate(97.481858 326.97) scale(0.12 -0.12)">
       <defs>
        <path id="Lato-Regular-30" d="M 3520 2291 
Q 3520 1690 3390 1250 
Q 3261 810 3037 522 
Q 2813 234 2507 93 
Q 2202 -48 1853 -48 
Q 1501 -48 1198 93 
Q 896 234 672 522 
Q 448 810 320 1250 
Q 192 1690 192 2291 
Q 192 2893 320 3334 
Q 448 3776 672 4065 
Q 896 4355 1198 4496 
Q 1501 4637 1853 4637 
Q 2202 4637 2507 4496 
Q 2813 4355 3037 4065 
Q 3261 3776 3390 3334 
Q 3520 2893 3520 2291 
z
M 2928 2291 
Q 2928 2816 2840 3173 
Q 2752 3530 2603 3747 
Q 2454 3965 2259 4059 
Q 2064 4154 1853 4154 
Q 1642 4154 1446 4059 
Q 1251 3965 1104 3747 
Q 957 3530 869 3173 
Q 781 2816 781 2291 
Q 781 1766 869 1411 
Q 957 1056 1104 838 
Q 1251 621 1446 526 
Q 1642 432 1853 432 
Q 2064 432 2259 526 
Q 2454 621 2603 838 
Q 2752 1056 2840 1411 
Q 2928 1766 2928 2291 
z
" transform="scale(0.015625)"/>
       </defs>
       <use xlink:href="#Lato-Regular-30"/>
      </g>
     </g>
    </g>
    <g id="xtick_2">
     <g id="line2d_2">
      <g>
       <use xlink:href="#mf004cb4d10" x="228.204181" y="311.13125" style="stroke: #000000; stroke-width: 0.8"/>
      </g>
     </g>
     <g id="text_2">
      <!-- 5 -->
      <g transform="translate(224.724181 326.97) scale(0.12 -0.12)">
       <defs>
        <path id="Lato-Regular-35" d="M 3130 4336 
Q 3130 4214 3053 4136 
Q 2976 4058 2794 4058 
L 1354 4058 
L 1142 2854 
Q 1501 2931 1805 2931 
Q 2163 2931 2436 2825 
Q 2710 2720 2896 2534 
Q 3082 2349 3176 2096 
Q 3270 1843 3270 1546 
Q 3270 1181 3142 886 
Q 3014 592 2792 382 
Q 2570 173 2269 61 
Q 1968 -51 1619 -51 
Q 1418 -51 1232 -11 
Q 1046 29 886 96 
Q 726 163 588 249 
Q 451 336 346 432 
L 518 675 
Q 576 758 672 758 
Q 733 758 814 708 
Q 896 659 1011 598 
Q 1126 538 1281 488 
Q 1437 438 1651 438 
Q 1891 438 2083 515 
Q 2275 592 2411 734 
Q 2547 877 2620 1075 
Q 2694 1274 2694 1520 
Q 2694 1734 2632 1907 
Q 2570 2080 2443 2201 
Q 2317 2323 2128 2390 
Q 1939 2458 1686 2458 
Q 1514 2458 1328 2429 
Q 1142 2400 944 2336 
L 586 2442 
L 957 4586 
L 3130 4586 
L 3130 4336 
z
" transform="scale(0.015625)"/>
       </defs>
       <use xlink:href="#Lato-Regular-35"/>
      </g>
     </g>
    </g>
    <g id="xtick_3">
     <g id="line2d_3">
      <g>
       <use xlink:href="#mf004cb4d10" x="355.446504" y="311.13125" style="stroke: #000000; stroke-width: 0.8"/>
      </g>
     </g>
     <g id="text_3">
      <!-- 10 -->
      <g transform="translate(348.486504 326.97) scale(0.12 -0.12)">
       <defs>
        <path id="Lato-Regular-31" d="M 918 435 
L 1904 435 
L 1904 3562 
Q 1904 3702 1914 3846 
L 1094 3146 
Q 1062 3120 1030 3109 
Q 998 3098 970 3098 
Q 922 3098 883 3118 
Q 845 3139 826 3168 
L 646 3414 
L 2010 4595 
L 2474 4595 
L 2474 435 
L 3376 435 
L 3376 0 
L 918 0 
L 918 435 
z
" transform="scale(0.015625)"/>
       </defs>
       <use xlink:href="#Lato-Regular-31"/>
       <use xlink:href="#Lato-Regular-30" x="58"/>
      </g>
     </g>
    </g>
    <g id="xtick_4">
     <g id="line2d_4">
      <g>
       <use xlink:href="#mf004cb4d10" x="482.688827" y="311.13125" style="stroke: #000000; stroke-width: 0.8"/>
      </g>
     </g>
     <g id="text_4">
      <!-- 15 -->
      <g transform="translate(475.728827 326.97) scale(0.12 -0.12)">
       <use xlink:href="#Lato-Regular-31"/>
       <use xlink:href="#Lato-Regular-35" x="58"/>
      </g>
     </g>
    </g>
    <g id="xtick_5">
     <g id="line2d_5">
      <g>
       <use xlink:href="#mf004cb4d10" x="609.93115" y="311.13125" style="stroke: #000000; stroke-width: 0.8"/>
      </g>
     </g>
     <g id="text_5">
      <!-- 20 -->
      <g transform="translate(602.97115 326.97) scale(0.12 -0.12)">
       <defs>
        <path id="Lato-Regular-32" d="M 1923 4637 
Q 2214 4637 2467 4550 
Q 2720 4464 2904 4299 
Q 3088 4134 3193 3897 
Q 3299 3661 3299 3360 
Q 3299 3104 3222 2886 
Q 3146 2669 3014 2469 
Q 2883 2269 2712 2081 
Q 2541 1894 2349 1699 
L 1142 464 
Q 1270 499 1401 520 
Q 1533 541 1654 541 
L 3190 541 
Q 3283 541 3337 486 
Q 3392 432 3392 346 
L 3392 0 
L 333 0 
L 333 195 
Q 333 256 357 320 
Q 381 384 435 438 
L 1904 1914 
Q 2086 2099 2236 2270 
Q 2387 2442 2494 2614 
Q 2602 2787 2659 2964 
Q 2717 3142 2717 3344 
Q 2717 3546 2653 3698 
Q 2589 3850 2477 3949 
Q 2365 4048 2214 4097 
Q 2064 4147 1891 4147 
Q 1718 4147 1571 4096 
Q 1424 4045 1310 3953 
Q 1197 3862 1118 3737 
Q 1040 3613 1008 3462 
Q 982 3370 931 3328 
Q 880 3286 797 3286 
Q 781 3286 763 3288 
Q 746 3290 723 3293 
L 426 3344 
Q 470 3658 598 3899 
Q 726 4141 923 4304 
Q 1120 4467 1374 4552 
Q 1629 4637 1923 4637 
z
" transform="scale(0.015625)"/>
       </defs>
       <use xlink:href="#Lato-Regular-32"/>
       <use xlink:href="#Lato-Regular-30" x="58"/>
      </g>
     </g>
    </g>
    <g id="xtick_6">
     <g id="line2d_6">
      <g>
       <use xlink:href="#mf004cb4d10" x="737.173473" y="311.13125" style="stroke: #000000; stroke-width: 0.8"/>
      </g>
     </g>
     <g id="text_6">
      <!-- 25 -->
      <g transform="translate(730.213473 326.97) scale(0.12 -0.12)">
       <use xlink:href="#Lato-Regular-32"/>
       <use xlink:href="#Lato-Regular-35" x="58"/>
      </g>
     </g>
    </g>
    <g id="xtick_7">
     <g id="line2d_7">
      <g>
       <use xlink:href="#mf004cb4d10" x="864.415795" y="311.13125" style="stroke: #000000; stroke-width: 0.8"/>
      </g>
     </g>
     <g id="text_7">
      <!-- 30 -->
      <g transform="translate(857.455795 326.97) scale(0.12 -0.12)">
       <defs>
        <path id="Lato-Regular-33" d="M 1984 4637 
Q 2275 4637 2521 4553 
Q 2768 4470 2945 4316 
Q 3123 4163 3222 3945 
Q 3322 3728 3322 3462 
Q 3322 3245 3266 3073 
Q 3210 2902 3106 2772 
Q 3002 2643 2854 2553 
Q 2707 2464 2525 2410 
Q 2973 2291 3198 2012 
Q 3424 1734 3424 1315 
Q 3424 998 3304 745 
Q 3184 493 2976 315 
Q 2768 138 2491 43 
Q 2214 -51 1898 -51 
Q 1533 -51 1273 40 
Q 1014 131 835 291 
Q 656 451 541 670 
Q 426 890 346 1146 
L 589 1248 
Q 656 1277 723 1277 
Q 787 1277 836 1249 
Q 886 1222 912 1165 
Q 918 1152 924 1137 
Q 931 1123 938 1107 
Q 982 1014 1046 897 
Q 1110 781 1219 678 
Q 1328 576 1489 505 
Q 1651 435 1891 435 
Q 2131 435 2312 513 
Q 2493 592 2613 717 
Q 2733 842 2793 995 
Q 2854 1149 2854 1299 
Q 2854 1485 2804 1638 
Q 2755 1792 2625 1904 
Q 2496 2016 2267 2080 
Q 2038 2144 1680 2144 
L 1680 2557 
Q 1971 2560 2177 2621 
Q 2384 2682 2515 2787 
Q 2646 2893 2705 3040 
Q 2765 3187 2765 3366 
Q 2765 3565 2702 3712 
Q 2640 3859 2531 3955 
Q 2422 4051 2273 4099 
Q 2125 4147 1952 4147 
Q 1779 4147 1632 4096 
Q 1485 4045 1371 3953 
Q 1258 3862 1181 3736 
Q 1104 3610 1066 3462 
Q 1040 3370 989 3328 
Q 938 3286 858 3286 
Q 842 3286 824 3288 
Q 806 3290 784 3293 
L 486 3344 
Q 531 3658 659 3899 
Q 787 4141 984 4304 
Q 1181 4467 1435 4552 
Q 1690 4637 1984 4637 
z
" transform="scale(0.015625)"/>
       </defs>
       <use xlink:href="#Lato-Regular-33"/>
       <use xlink:href="#Lato-Regular-30" x="58"/>
      </g>
     </g>
    </g>
    <g id="text_8">
     <!-- Zeit in Sekunden -->
     <g transform="translate(410.922188 355.76) scale(0.2 -0.2)">
      <defs>
       <path id="Lato-Regular-5a" d="M 3750 4586 
L 3750 4355 
Q 3750 4246 3683 4150 
L 1088 506 
L 3706 506 
L 3706 0 
L 275 0 
L 275 243 
Q 275 339 336 426 
L 2934 4080 
L 397 4080 
L 397 4586 
L 3750 4586 
z
" transform="scale(0.015625)"/>
       <path id="Lato-Regular-65" d="M 1750 3293 
Q 2042 3293 2288 3195 
Q 2534 3098 2713 2914 
Q 2893 2730 2993 2459 
Q 3094 2189 3094 1843 
Q 3094 1709 3065 1664 
Q 3037 1619 2957 1619 
L 800 1619 
Q 806 1312 883 1085 
Q 960 858 1094 706 
Q 1229 554 1414 478 
Q 1600 403 1830 403 
Q 2045 403 2200 452 
Q 2355 502 2467 560 
Q 2579 618 2654 667 
Q 2730 717 2784 717 
Q 2854 717 2893 662 
L 3053 454 
Q 2947 326 2800 232 
Q 2653 138 2485 77 
Q 2317 16 2137 -14 
Q 1958 -45 1782 -45 
Q 1446 -45 1163 68 
Q 880 182 673 401 
Q 467 621 352 944 
Q 237 1267 237 1686 
Q 237 2026 341 2320 
Q 445 2614 640 2830 
Q 835 3046 1116 3169 
Q 1398 3293 1750 3293 
z
M 1763 2874 
Q 1350 2874 1113 2635 
Q 877 2397 819 1974 
L 2582 1974 
Q 2582 2173 2528 2337 
Q 2474 2502 2368 2622 
Q 2262 2742 2110 2808 
Q 1958 2874 1763 2874 
z
" transform="scale(0.015625)"/>
       <path id="Lato-Regular-69" d="M 1101 3242 
L 1101 0 
L 531 0 
L 531 3242 
L 1101 3242 
z
M 1229 4259 
Q 1229 4176 1195 4104 
Q 1162 4032 1106 3976 
Q 1050 3920 976 3888 
Q 902 3856 819 3856 
Q 736 3856 664 3888 
Q 592 3920 536 3976 
Q 480 4032 448 4104 
Q 416 4176 416 4259 
Q 416 4342 448 4417 
Q 480 4493 536 4549 
Q 592 4605 664 4637 
Q 736 4669 819 4669 
Q 902 4669 976 4637 
Q 1050 4605 1106 4549 
Q 1162 4493 1195 4417 
Q 1229 4342 1229 4259 
z
" transform="scale(0.015625)"/>
       <path id="Lato-Regular-74" d="M 1450 -51 
Q 1066 -51 859 163 
Q 653 378 653 781 
L 653 2765 
L 262 2765 
Q 211 2765 176 2795 
Q 141 2826 141 2890 
L 141 3117 
L 672 3184 
L 803 4186 
Q 810 4234 845 4264 
Q 880 4294 934 4294 
L 1222 4294 
L 1222 3178 
L 2150 3178 
L 2150 2765 
L 1222 2765 
L 1222 819 
Q 1222 614 1321 515 
Q 1421 416 1578 416 
Q 1667 416 1732 440 
Q 1798 464 1846 493 
Q 1894 522 1928 546 
Q 1962 570 1987 570 
Q 2032 570 2067 515 
L 2234 243 
Q 2086 106 1878 27 
Q 1670 -51 1450 -51 
z
" transform="scale(0.015625)"/>
       <path id="Lato-Regular-20" transform="scale(0.015625)"/>
       <path id="Lato-Regular-6e" d="M 467 0 
L 467 3242 
L 806 3242 
Q 928 3242 960 3123 
L 1005 2771 
Q 1216 3005 1477 3149 
Q 1738 3293 2080 3293 
Q 2346 3293 2549 3205 
Q 2752 3117 2888 2955 
Q 3024 2794 3094 2566 
Q 3165 2339 3165 2064 
L 3165 0 
L 2595 0 
L 2595 2064 
Q 2595 2432 2427 2635 
Q 2259 2838 1914 2838 
Q 1661 2838 1441 2716 
Q 1222 2595 1037 2387 
L 1037 0 
L 467 0 
z
" transform="scale(0.015625)"/>
       <path id="Lato-Regular-53" d="M 2906 3869 
Q 2877 3821 2845 3797 
Q 2813 3773 2762 3773 
Q 2707 3773 2635 3827 
Q 2563 3882 2452 3947 
Q 2342 4013 2187 4067 
Q 2032 4122 1811 4122 
Q 1603 4122 1443 4066 
Q 1283 4010 1176 3914 
Q 1069 3818 1014 3688 
Q 960 3558 960 3408 
Q 960 3216 1054 3089 
Q 1149 2963 1304 2873 
Q 1459 2784 1656 2718 
Q 1853 2653 2059 2582 
Q 2266 2512 2462 2424 
Q 2659 2336 2814 2201 
Q 2970 2067 3064 1872 
Q 3158 1677 3158 1392 
Q 3158 1091 3056 827 
Q 2954 563 2757 368 
Q 2560 173 2273 61 
Q 1987 -51 1622 -51 
Q 1178 -51 811 110 
Q 445 272 186 547 
L 365 842 
Q 390 877 427 901 
Q 464 925 509 925 
Q 576 925 662 853 
Q 749 781 878 694 
Q 1008 608 1192 536 
Q 1376 464 1642 464 
Q 1862 464 2035 525 
Q 2208 586 2328 696 
Q 2448 806 2512 960 
Q 2576 1114 2576 1302 
Q 2576 1510 2481 1643 
Q 2387 1776 2233 1865 
Q 2080 1955 1883 2017 
Q 1686 2080 1480 2145 
Q 1274 2211 1077 2297 
Q 880 2384 726 2521 
Q 573 2659 478 2865 
Q 384 3072 384 3376 
Q 384 3619 478 3846 
Q 573 4074 752 4250 
Q 931 4426 1195 4531 
Q 1459 4637 1802 4637 
Q 2186 4637 2502 4515 
Q 2819 4394 3056 4163 
L 2906 3869 
z
" transform="scale(0.015625)"/>
       <path id="Lato-Regular-6b" d="M 1059 4714 
L 1059 1939 
L 1206 1939 
Q 1270 1939 1312 1956 
Q 1354 1974 1405 2029 
L 2429 3126 
Q 2477 3178 2525 3210 
Q 2573 3242 2653 3242 
L 3171 3242 
L 1978 1971 
Q 1933 1917 1889 1875 
Q 1846 1834 1792 1802 
Q 1850 1763 1896 1713 
Q 1942 1664 1984 1600 
L 3251 0 
L 2739 0 
Q 2669 0 2619 27 
Q 2570 54 2525 112 
L 1459 1440 
Q 1411 1507 1363 1528 
Q 1315 1549 1219 1549 
L 1059 1549 
L 1059 0 
L 486 0 
L 486 4714 
L 1059 4714 
z
" transform="scale(0.015625)"/>
       <path id="Lato-Regular-75" d="M 960 3242 
L 960 1174 
Q 960 806 1129 604 
Q 1299 403 1642 403 
Q 1891 403 2112 521 
Q 2333 640 2518 851 
L 2518 3242 
L 3088 3242 
L 3088 0 
L 2749 0 
Q 2627 0 2595 118 
L 2550 467 
Q 2339 234 2076 91 
Q 1814 -51 1475 -51 
Q 1210 -51 1006 37 
Q 803 125 665 285 
Q 528 445 459 672 
Q 390 899 390 1174 
L 390 3242 
L 960 3242 
z
" transform="scale(0.015625)"/>
       <path id="Lato-Regular-64" d="M 2749 0 
Q 2627 0 2595 118 
L 2544 512 
Q 2336 259 2069 107 
Q 1802 -45 1456 -45 
Q 1178 -45 950 62 
Q 723 170 563 378 
Q 403 586 316 896 
Q 230 1206 230 1610 
Q 230 1968 326 2277 
Q 422 2586 603 2813 
Q 784 3040 1043 3169 
Q 1302 3299 1632 3299 
Q 1930 3299 2141 3198 
Q 2352 3098 2518 2915 
L 2518 4714 
L 3088 4714 
L 3088 0 
L 2749 0 
z
M 1645 416 
Q 1923 416 2132 544 
Q 2342 672 2518 906 
L 2518 2474 
Q 2362 2685 2174 2769 
Q 1987 2854 1760 2854 
Q 1306 2854 1062 2531 
Q 819 2208 819 1610 
Q 819 1293 873 1067 
Q 928 842 1033 696 
Q 1139 550 1292 483 
Q 1446 416 1645 416 
z
" transform="scale(0.015625)"/>
      </defs>
      <use xlink:href="#Lato-Regular-5a"/>
      <use xlink:href="#Lato-Regular-65" x="62.400009"/>
      <use xlink:href="#Lato-Regular-69" x="114.800018"/>
      <use xlink:href="#Lato-Regular-74" x="140.400024"/>
      <use xlink:href="#Lato-Regular-20" x="177.700027"/>
      <use xlink:href="#Lato-Regular-69" x="197.000031"/>
      <use xlink:href="#Lato-Regular-6e" x="222.600037"/>
      <use xlink:href="#Lato-Regular-20" x="278.200043"/>
      <use xlink:href="#Lato-Regular-53" x="297.500046"/>
      <use xlink:href="#Lato-Regular-65" x="350.500046"/>
      <use xlink:href="#Lato-Regular-6b" x="402.900055"/>
      <use xlink:href="#Lato-Regular-75" x="455.300064"/>
      <use xlink:href="#Lato-Regular-6e" x="510.90007"/>
      <use xlink:href="#Lato-Regular-64" x="566.500076"/>
      <use xlink:href="#Lato-Regular-65" x="622.400085"/>
      <use xlink:href="#Lato-Regular-6e" x="674.800095"/>
     </g>
    </g>
   </g>
   <g id="matplotlib.axis_2">
    <g id="ytick_1">
     <g id="line2d_8">
      <defs>
       <path id="m6ec919eb08" d="M 0 0 
L -3.5 0 
" style="stroke: #000000; stroke-width: 0.8"/>
      </defs>
      <g>
       <use xlink:href="#m6ec919eb08" x="65.46125" y="259.060251" style="stroke: #000000; stroke-width: 0.8"/>
      </g>
     </g>
     <g id="text_9">
      <!-- 20 -->
      <g transform="translate(44.54125 263.479626) scale(0.12 -0.12)">
       <use xlink:href="#Lato-Regular-32"/>
       <use xlink:href="#Lato-Regular-30" x="58"/>
      </g>
     </g>
    </g>
    <g id="ytick_2">
     <g id="line2d_9">
      <g>
       <use xlink:href="#m6ec919eb08" x="65.46125" y="205.628815" style="stroke: #000000; stroke-width: 0.8"/>
      </g>
     </g>
     <g id="text_10">
      <!-- 40 -->
      <g transform="translate(44.54125 210.04819) scale(0.12 -0.12)">
       <defs>
        <path id="Lato-Regular-34" d="M 2890 1654 
L 3584 1654 
L 3584 1328 
Q 3584 1277 3553 1241 
Q 3523 1206 3459 1206 
L 2890 1206 
L 2890 0 
L 2387 0 
L 2387 1206 
L 355 1206 
Q 291 1206 244 1243 
Q 198 1280 186 1334 
L 128 1626 
L 2358 4586 
L 2890 4586 
L 2890 1654 
z
M 2387 3546 
Q 2387 3629 2392 3725 
Q 2397 3821 2413 3923 
L 746 1654 
L 2387 1654 
L 2387 3546 
z
" transform="scale(0.015625)"/>
       </defs>
       <use xlink:href="#Lato-Regular-34"/>
       <use xlink:href="#Lato-Regular-30" x="58"/>
      </g>
     </g>
    </g>
    <g id="ytick_3">
     <g id="line2d_10">
      <g>
       <use xlink:href="#m6ec919eb08" x="65.46125" y="152.19738" style="stroke: #000000; stroke-width: 0.8"/>
      </g>
     </g>
     <g id="text_11">
      <!-- 60 -->
      <g transform="translate(44.54125 156.616755) scale(0.12 -0.12)">
       <defs>
        <path id="Lato-Regular-36" d="M 2080 2810 
Q 2355 2810 2601 2718 
Q 2848 2627 3033 2452 
Q 3219 2278 3328 2024 
Q 3437 1770 3437 1443 
Q 3437 1126 3321 854 
Q 3206 582 3000 380 
Q 2794 179 2502 64 
Q 2211 -51 1862 -51 
Q 1517 -51 1237 59 
Q 957 170 758 373 
Q 560 576 453 865 
Q 346 1155 346 1514 
Q 346 1814 480 2153 
Q 614 2493 906 2883 
L 2067 4448 
Q 2112 4506 2192 4546 
Q 2272 4586 2374 4586 
L 2880 4586 
L 1290 2573 
Q 1453 2685 1651 2747 
Q 1850 2810 2080 2810 
z
M 896 1414 
Q 896 1194 960 1011 
Q 1024 829 1147 697 
Q 1270 566 1448 494 
Q 1626 422 1853 422 
Q 2083 422 2268 496 
Q 2454 570 2587 701 
Q 2720 832 2792 1011 
Q 2864 1190 2864 1402 
Q 2864 1626 2793 1806 
Q 2723 1987 2595 2113 
Q 2467 2240 2288 2307 
Q 2109 2374 1894 2374 
Q 1664 2374 1478 2296 
Q 1293 2218 1163 2085 
Q 1034 1952 965 1777 
Q 896 1603 896 1414 
z
" transform="scale(0.015625)"/>
       </defs>
       <use xlink:href="#Lato-Regular-36"/>
       <use xlink:href="#Lato-Regular-30" x="58"/>
      </g>
     </g>
    </g>
    <g id="ytick_4">
     <g id="line2d_11">
      <g>
       <use xlink:href="#m6ec919eb08" x="65.46125" y="98.765945" style="stroke: #000000; stroke-width: 0.8"/>
      </g>
     </g>
     <g id="text_12">
      <!-- 80 -->
      <g transform="translate(44.54125 103.18532) scale(0.12 -0.12)">
       <defs>
        <path id="Lato-Regular-38" d="M 1853 -51 
Q 1510 -51 1225 40 
Q 941 131 736 300 
Q 531 470 419 712 
Q 307 954 307 1254 
Q 307 1696 537 1982 
Q 768 2269 1197 2390 
Q 835 2525 651 2792 
Q 467 3059 467 3430 
Q 467 3683 566 3904 
Q 666 4125 848 4288 
Q 1030 4451 1284 4544 
Q 1539 4637 1853 4637 
Q 2163 4637 2419 4544 
Q 2675 4451 2857 4288 
Q 3040 4125 3139 3904 
Q 3238 3683 3238 3430 
Q 3238 3059 3052 2792 
Q 2867 2525 2509 2390 
Q 2938 2269 3168 1982 
Q 3398 1696 3398 1254 
Q 3398 954 3284 712 
Q 3171 470 2968 300 
Q 2765 131 2480 40 
Q 2195 -51 1853 -51 
z
M 1853 403 
Q 2077 403 2254 465 
Q 2432 528 2555 641 
Q 2678 755 2744 913 
Q 2810 1072 2810 1264 
Q 2810 1501 2731 1669 
Q 2653 1837 2520 1942 
Q 2387 2048 2214 2097 
Q 2042 2147 1853 2147 
Q 1664 2147 1491 2097 
Q 1318 2048 1185 1942 
Q 1053 1837 974 1669 
Q 896 1501 896 1264 
Q 896 1072 961 913 
Q 1027 755 1150 641 
Q 1274 528 1451 465 
Q 1629 403 1853 403 
z
M 1853 2605 
Q 2077 2605 2235 2673 
Q 2394 2742 2493 2856 
Q 2592 2970 2637 3117 
Q 2682 3264 2682 3421 
Q 2682 3581 2629 3721 
Q 2576 3862 2472 3968 
Q 2368 4074 2213 4134 
Q 2058 4195 1853 4195 
Q 1648 4195 1493 4134 
Q 1338 4074 1234 3968 
Q 1130 3862 1077 3721 
Q 1024 3581 1024 3421 
Q 1024 3264 1069 3117 
Q 1114 2970 1213 2856 
Q 1312 2742 1470 2673 
Q 1629 2605 1853 2605 
z
" transform="scale(0.015625)"/>
       </defs>
       <use xlink:href="#Lato-Regular-38"/>
       <use xlink:href="#Lato-Regular-30" x="58"/>
      </g>
     </g>
    </g>
    <g id="ytick_5">
     <g id="line2d_12">
      <g>
       <use xlink:href="#m6ec919eb08" x="65.46125" y="45.33451" style="stroke: #000000; stroke-width: 0.8"/>
      </g>
     </g>
     <g id="text_13">
      <!-- 100 -->
      <g transform="translate(37.58125 49.753885) scale(0.12 -0.12)">
       <use xlink:href="#Lato-Regular-31"/>
       <use xlink:href="#Lato-Regular-30" x="58"/>
       <use xlink:href="#Lato-Regular-30" x="116"/>
      </g>
     </g>
    </g>
    <g id="text_14">
     <!-- Geschwindigkeit in km/h -->
     <g transform="translate(21.93125 280.207812) rotate(-90) scale(0.2 -0.2)">
      <defs>
       <path id="Lato-Regular-47" d="M 2602 451 
Q 2787 451 2942 468 
Q 3098 486 3235 521 
Q 3373 557 3494 606 
Q 3616 656 3738 720 
L 3738 1731 
L 3027 1731 
Q 2966 1731 2929 1766 
Q 2893 1802 2893 1853 
L 2893 2205 
L 4301 2205 
L 4301 445 
Q 4128 320 3941 227 
Q 3754 134 3541 72 
Q 3328 10 3085 -20 
Q 2842 -51 2557 -51 
Q 2058 -51 1642 120 
Q 1226 291 925 600 
Q 624 909 456 1341 
Q 288 1773 288 2291 
Q 288 2816 453 3248 
Q 618 3680 923 3989 
Q 1229 4298 1662 4467 
Q 2096 4637 2634 4637 
Q 2906 4637 3139 4597 
Q 3373 4557 3573 4481 
Q 3773 4406 3942 4299 
Q 4112 4192 4259 4058 
L 4083 3776 
Q 4029 3690 3942 3690 
Q 3891 3690 3830 3725 
Q 3750 3770 3651 3834 
Q 3552 3898 3409 3957 
Q 3267 4016 3073 4057 
Q 2880 4099 2614 4099 
Q 2227 4099 1913 3972 
Q 1600 3846 1379 3611 
Q 1158 3376 1040 3041 
Q 922 2707 922 2291 
Q 922 1856 1045 1515 
Q 1168 1174 1392 937 
Q 1616 701 1923 576 
Q 2230 451 2602 451 
z
" transform="scale(0.015625)"/>
       <path id="Lato-Regular-73" d="M 2323 2707 
Q 2285 2637 2205 2637 
Q 2157 2637 2096 2672 
Q 2035 2707 1947 2750 
Q 1859 2794 1737 2830 
Q 1616 2867 1450 2867 
Q 1306 2867 1190 2830 
Q 1075 2794 993 2730 
Q 912 2666 869 2581 
Q 826 2496 826 2397 
Q 826 2272 898 2189 
Q 970 2106 1088 2045 
Q 1206 1984 1356 1937 
Q 1507 1891 1665 1838 
Q 1824 1786 1974 1722 
Q 2125 1658 2243 1562 
Q 2362 1466 2434 1326 
Q 2506 1187 2506 992 
Q 2506 768 2426 577 
Q 2346 387 2189 248 
Q 2032 109 1805 29 
Q 1578 -51 1280 -51 
Q 941 -51 665 59 
Q 390 170 198 342 
L 333 560 
Q 358 602 393 624 
Q 429 646 486 646 
Q 544 646 608 601 
Q 672 557 763 502 
Q 854 448 984 403 
Q 1114 358 1309 358 
Q 1475 358 1600 401 
Q 1725 445 1808 518 
Q 1891 592 1931 688 
Q 1971 784 1971 893 
Q 1971 1027 1899 1115 
Q 1827 1203 1708 1265 
Q 1590 1328 1438 1374 
Q 1286 1421 1128 1472 
Q 970 1523 818 1588 
Q 666 1654 547 1753 
Q 429 1853 357 1998 
Q 285 2144 285 2352 
Q 285 2538 361 2709 
Q 438 2880 585 3009 
Q 733 3139 947 3216 
Q 1162 3293 1437 3293 
Q 1757 3293 2011 3192 
Q 2266 3091 2451 2915 
L 2323 2707 
z
" transform="scale(0.015625)"/>
       <path id="Lato-Regular-63" d="M 2678 2666 
Q 2653 2630 2627 2611 
Q 2602 2592 2554 2592 
Q 2506 2592 2450 2632 
Q 2394 2672 2307 2720 
Q 2221 2768 2097 2808 
Q 1974 2848 1795 2848 
Q 1558 2848 1376 2763 
Q 1194 2678 1070 2518 
Q 947 2358 884 2131 
Q 822 1904 822 1622 
Q 822 1328 889 1099 
Q 957 870 1078 715 
Q 1200 560 1374 478 
Q 1549 397 1766 397 
Q 1974 397 2108 446 
Q 2243 496 2332 557 
Q 2422 618 2480 667 
Q 2538 717 2595 717 
Q 2669 717 2704 662 
L 2864 454 
Q 2653 195 2336 75 
Q 2019 -45 1667 -45 
Q 1363 -45 1102 67 
Q 842 179 650 392 
Q 458 605 347 915 
Q 237 1226 237 1622 
Q 237 1984 337 2291 
Q 438 2598 632 2820 
Q 826 3043 1110 3168 
Q 1395 3293 1763 3293 
Q 2102 3293 2364 3182 
Q 2627 3072 2829 2870 
L 2678 2666 
z
" transform="scale(0.015625)"/>
       <path id="Lato-Regular-68" d="M 467 0 
L 467 4714 
L 1037 4714 
L 1037 2806 
Q 1245 3027 1497 3160 
Q 1750 3293 2080 3293 
Q 2346 3293 2549 3205 
Q 2752 3117 2888 2955 
Q 3024 2794 3094 2566 
Q 3165 2339 3165 2064 
L 3165 0 
L 2595 0 
L 2595 2064 
Q 2595 2432 2427 2635 
Q 2259 2838 1914 2838 
Q 1661 2838 1441 2716 
Q 1222 2595 1037 2387 
L 1037 0 
L 467 0 
z
" transform="scale(0.015625)"/>
       <path id="Lato-Regular-77" d="M 45 3242 
L 493 3242 
Q 563 3242 608 3206 
Q 653 3171 669 3123 
L 1290 1037 
Q 1315 922 1337 814 
Q 1360 707 1376 598 
Q 1402 707 1434 814 
Q 1466 922 1501 1037 
L 2186 3136 
Q 2202 3184 2242 3216 
Q 2282 3248 2342 3248 
L 2589 3248 
Q 2653 3248 2694 3216 
Q 2736 3184 2752 3136 
L 3421 1037 
Q 3456 925 3483 816 
Q 3510 707 3536 602 
Q 3552 707 3577 822 
Q 3603 938 3632 1037 
L 4266 3123 
Q 4282 3174 4326 3208 
Q 4371 3242 4432 3242 
L 4861 3242 
L 3811 0 
L 3360 0 
Q 3277 0 3245 109 
L 2528 2307 
Q 2502 2381 2486 2456 
Q 2470 2531 2454 2605 
Q 2438 2531 2422 2454 
Q 2406 2378 2381 2304 
L 1654 109 
Q 1619 0 1523 0 
L 1094 0 
L 45 3242 
z
" transform="scale(0.015625)"/>
       <path id="Lato-Regular-67" d="M 1558 3296 
Q 1770 3296 1954 3249 
Q 2138 3203 2288 3114 
L 3168 3114 
L 3168 2902 
Q 3168 2797 3034 2768 
L 2666 2717 
Q 2774 2509 2774 2253 
Q 2774 2016 2683 1822 
Q 2592 1629 2430 1491 
Q 2269 1354 2046 1280 
Q 1824 1206 1558 1206 
Q 1331 1206 1130 1261 
Q 1027 1197 974 1123 
Q 922 1050 922 979 
Q 922 864 1014 805 
Q 1107 746 1260 720 
Q 1414 694 1609 688 
Q 1805 682 2008 667 
Q 2211 653 2406 617 
Q 2602 582 2755 502 
Q 2909 422 3001 281 
Q 3094 141 3094 -83 
Q 3094 -291 2990 -486 
Q 2886 -682 2691 -834 
Q 2496 -986 2214 -1077 
Q 1933 -1168 1578 -1168 
Q 1222 -1168 955 -1097 
Q 688 -1027 512 -908 
Q 336 -790 248 -635 
Q 160 -480 160 -310 
Q 160 -70 312 98 
Q 464 266 730 365 
Q 592 429 510 536 
Q 429 643 429 822 
Q 429 893 454 968 
Q 480 1043 533 1116 
Q 586 1190 662 1257 
Q 739 1325 842 1376 
Q 602 1510 466 1732 
Q 330 1955 330 2253 
Q 330 2490 421 2683 
Q 512 2877 675 3013 
Q 838 3149 1064 3222 
Q 1290 3296 1558 3296 
z
M 2570 -176 
Q 2570 -54 2502 19 
Q 2435 93 2320 133 
Q 2205 173 2054 192 
Q 1904 211 1737 219 
Q 1571 227 1398 236 
Q 1226 246 1069 272 
Q 886 186 772 61 
Q 659 -64 659 -237 
Q 659 -346 715 -440 
Q 771 -534 886 -603 
Q 1002 -672 1176 -712 
Q 1350 -752 1587 -752 
Q 1818 -752 2000 -710 
Q 2182 -669 2308 -592 
Q 2435 -515 2502 -409 
Q 2570 -304 2570 -176 
z
M 1558 1584 
Q 1731 1584 1864 1632 
Q 1997 1680 2086 1766 
Q 2176 1853 2221 1973 
Q 2266 2093 2266 2237 
Q 2266 2534 2085 2710 
Q 1904 2886 1558 2886 
Q 1216 2886 1035 2710 
Q 854 2534 854 2237 
Q 854 2093 900 1973 
Q 947 1853 1036 1766 
Q 1126 1680 1257 1632 
Q 1389 1584 1558 1584 
z
" transform="scale(0.015625)"/>
       <path id="Lato-Regular-6d" d="M 467 0 
L 467 3242 
L 806 3242 
Q 928 3242 960 3123 
L 1002 2790 
Q 1181 3011 1403 3152 
Q 1626 3293 1920 3293 
Q 2250 3293 2453 3110 
Q 2656 2928 2746 2618 
Q 2813 2794 2923 2922 
Q 3034 3050 3171 3133 
Q 3309 3216 3464 3254 
Q 3619 3293 3779 3293 
Q 4035 3293 4235 3211 
Q 4435 3130 4574 2973 
Q 4714 2816 4787 2587 
Q 4861 2358 4861 2064 
L 4861 0 
L 4291 0 
L 4291 2064 
Q 4291 2445 4124 2641 
Q 3958 2838 3642 2838 
Q 3501 2838 3374 2788 
Q 3248 2739 3152 2643 
Q 3056 2547 3000 2401 
Q 2944 2256 2944 2064 
L 2944 0 
L 2374 0 
L 2374 2064 
Q 2374 2454 2217 2646 
Q 2061 2838 1760 2838 
Q 1549 2838 1368 2724 
Q 1187 2611 1037 2416 
L 1037 0 
L 467 0 
z
" transform="scale(0.015625)"/>
       <path id="Lato-Regular-2f" d="M 515 -67 
Q 470 -179 382 -233 
Q 294 -288 202 -288 
L -38 -288 
L 1885 4502 
Q 1926 4605 2003 4659 
Q 2080 4714 2186 4714 
L 2426 4714 
L 515 -67 
z
" transform="scale(0.015625)"/>
      </defs>
      <use xlink:href="#Lato-Regular-47"/>
      <use xlink:href="#Lato-Regular-65" x="73.400009"/>
      <use xlink:href="#Lato-Regular-73" x="125.800018"/>
      <use xlink:href="#Lato-Regular-63" x="169.200027"/>
      <use xlink:href="#Lato-Regular-68" x="215.900024"/>
      <use xlink:href="#Lato-Regular-77" x="271.500031"/>
      <use xlink:href="#Lato-Regular-69" x="348.100037"/>
      <use xlink:href="#Lato-Regular-6e" x="373.700043"/>
      <use xlink:href="#Lato-Regular-64" x="429.300049"/>
      <use xlink:href="#Lato-Regular-69" x="485.200058"/>
      <use xlink:href="#Lato-Regular-67" x="510.800064"/>
      <use xlink:href="#Lato-Regular-6b" x="561.90007"/>
      <use xlink:href="#Lato-Regular-65" x="614.300079"/>
      <use xlink:href="#Lato-Regular-69" x="666.700089"/>
      <use xlink:href="#Lato-Regular-74" x="692.300095"/>
      <use xlink:href="#Lato-Regular-20" x="729.600098"/>
      <use xlink:href="#Lato-Regular-69" x="748.900101"/>
      <use xlink:href="#Lato-Regular-6e" x="774.500107"/>
      <use xlink:href="#Lato-Regular-20" x="830.100113"/>
      <use xlink:href="#Lato-Regular-6b" x="849.400116"/>
      <use xlink:href="#Lato-Regular-6d" x="901.800125"/>
      <use xlink:href="#Lato-Regular-2f" x="983.900131"/>
      <use xlink:href="#Lato-Regular-68" x="1021.200134"/>
     </g>
    </g>
   </g>
   <g id="line2d_13">
    <path d="M 103.506705 123.070667 
L 106.051551 124.725764 
L 108.596397 128.944542 
L 111.141244 140.994895 
L 113.68609 151.339316 
L 116.230937 175.037334 
L 118.775783 167.820981 
L 121.32063 126.672655 
L 123.865476 121.060417 
L 126.410323 85.730872 
L 128.955169 73.705859 
L 131.500016 92.487316 
L 134.044862 93.214042 
L 136.589708 81.294706 
L 139.134555 96.647316 
L 141.679401 86.197222 
L 144.224248 78.422124 
L 146.769094 61.064669 
L 149.313941 55.111755 
L 151.858787 55.466105 
L 154.403634 61.285726 
L 156.94848 61.819515 
L 159.493327 62.574136 
L 162.038173 90.277287 
L 164.58302 146.268397 
L 167.127866 150.34569 
L 169.672712 130.9476 
L 172.217559 127.179994 
L 174.762405 100.658944 
L 177.307252 88.15762 
L 179.852098 90.558701 
L 182.396945 99.400625 
L 184.941791 74.555998 
L 187.486638 73.912122 
L 190.031484 72.994255 
L 192.576331 100.553187 
L 195.121177 110.023658 
L 197.666023 151.033601 
L 200.21087 195.049595 
L 202.755716 205.292021 
L 205.300563 227.908043 
L 207.845409 269.907087 
L 210.390256 265.447607 
L 212.935102 235.539662 
L 215.479949 224.908581 
L 218.024795 183.271449 
L 220.569642 149.489594 
L 223.114488 152.24999 
L 225.659335 137.533017 
L 228.204181 168.27264 
L 230.749027 154.283863 
L 233.293874 141.03149 
L 235.83872 139.917589 
L 238.383567 165.5487 
L 240.928413 158.994652 
L 243.47326 162.041576 
L 246.018106 159.899134 
L 248.562953 148.772726 
L 251.107799 146.807643 
L 253.652646 169.23959 
L 256.197492 176.292578 
L 258.742338 180.278978 
L 261.287185 172.730252 
L 263.832031 146.447252 
L 266.376878 143.300064 
L 271.466571 121.1079 
L 274.011417 146.816727 
L 276.556264 154.47713 
L 279.10111 170.215753 
L 281.645957 144.428537 
L 284.190803 94.294059 
L 286.73565 79.529623 
L 289.280496 87.082049 
L 291.825342 87.001491 
L 294.370189 91.35458 
L 296.915035 100.523804 
L 299.459882 95.823278 
L 302.004728 73.141971 
L 304.549575 83.116111 
L 309.639268 46.53125 
L 312.184114 48.055112 
L 314.728961 65.954772 
L 317.273807 56.215558 
L 319.818653 84.885916 
L 322.3635 80.332318 
L 324.908346 111.6278 
L 329.998039 138.338444 
L 332.542886 129.830736 
L 335.087732 120.069633 
L 337.632579 128.047681 
L 340.177425 139.084259 
L 342.722272 142.522729 
L 345.267118 148.893185 
L 347.811965 136.87568 
L 350.356811 143.043917 
L 352.901657 172.488813 
L 355.446504 174.279997 
L 357.99135 168.491859 
L 360.536197 192.787012 
L 363.081043 114.821318 
L 368.170736 139.006574 
L 370.715583 171.906383 
L 373.260429 156.031643 
L 375.805276 135.746847 
L 378.350122 138.563432 
L 380.894968 165.090985 
L 383.439815 158.658887 
L 385.984661 166.437626 
L 388.529508 159.580079 
L 391.074354 163.113144 
L 393.619201 145.305054 
L 396.164047 148.228538 
L 398.708894 162.034499 
L 401.25374 170.308251 
L 403.798587 183.232698 
L 406.343433 179.036995 
L 408.888279 151.218853 
L 411.433126 151.424734 
L 413.977972 136.079674 
L 416.522819 125.37097 
L 419.067665 155.022176 
L 424.157358 170.390396 
L 426.702205 118.929737 
L 429.247051 85.236126 
L 431.791898 79.984588 
L 434.336744 91.512294 
L 436.881591 84.553655 
L 439.426437 135.66179 
L 441.971283 159.468047 
L 444.51613 135.347852 
L 447.060976 162.528381 
L 449.605823 151.870912 
L 452.150669 144.509532 
L 454.695516 148.52684 
L 457.240362 162.172737 
L 459.785209 160.74602 
L 462.330055 167.895967 
L 464.874902 162.272293 
L 467.419748 148.816028 
L 469.964594 142.473686 
L 475.054287 173.283633 
L 477.599134 179.487024 
L 480.14398 179.94698 
L 482.688827 152.362573 
L 485.233673 147.804134 
L 487.77852 134.086901 
L 490.323366 134.987695 
L 492.868213 154.651499 
L 495.413059 161.20672 
L 497.957906 147.310295 
L 500.502752 91.52328 
L 503.047598 80.412375 
L 505.592445 89.757258 
L 508.137291 85.977541 
L 510.682138 106.515329 
L 513.226984 118.241177 
L 515.771831 120.231597 
L 518.316677 123.551576 
L 520.861524 129.349875 
L 523.40637 139.671051 
L 525.951217 152.849651 
L 528.496063 188.450002 
L 531.040909 133.16123 
L 533.585756 123.844294 
L 536.130602 77.392875 
L 538.675449 71.978836 
L 541.220295 113.55319 
L 543.765142 75.146877 
L 546.309988 101.509719 
L 548.854835 79.253342 
L 551.399681 80.882516 
L 553.944528 55.201115 
L 556.489374 51.301392 
L 559.034221 60.666322 
L 561.579067 67.810501 
L 564.123913 58.646363 
L 566.66876 81.585844 
L 569.213606 145.451602 
L 571.758453 150.567466 
L 574.303299 129.963729 
L 576.848146 128.363419 
L 579.392992 104.633666 
L 581.937839 91.162715 
L 584.482685 91.452476 
L 587.027532 100.791125 
L 589.572378 76.232317 
L 592.117224 81.735494 
L 594.662071 60.582304 
L 597.206917 99.540028 
L 599.751764 106.467957 
L 602.29661 148.697797 
L 604.841457 188.543323 
L 607.386303 206.880008 
L 609.93115 210.683045 
L 612.475996 193.747171 
L 615.020843 160.558808 
L 617.565689 154.150043 
L 622.655382 127.744188 
L 625.200228 129.836955 
L 627.745075 134.365443 
L 632.834768 176.628921 
L 635.379614 147.742502 
L 637.924461 120.172708 
L 640.469307 90.674151 
L 643.014154 77.389025 
L 645.559 102.878501 
L 648.103847 83.818157 
L 650.648693 95.381794 
L 653.193539 83.339822 
L 655.738386 79.180517 
L 658.283232 54.523738 
L 660.828079 52.239758 
L 663.372925 62.839693 
L 665.917772 60.992075 
L 668.462618 68.312069 
L 671.007465 144.845902 
L 673.552311 150.507022 
L 676.097158 130.909645 
L 678.642004 117.78547 
L 681.18685 95.361634 
L 683.731697 93.910971 
L 686.276543 96.148826 
L 688.82139 79.772643 
L 691.366236 82.40092 
L 693.911083 53.695561 
L 696.455929 100.039716 
L 699.000776 108.247886 
L 701.545622 151.866324 
L 704.090469 182.180671 
L 706.635315 204.184548 
L 709.180162 216.412104 
L 711.725008 271.571014 
L 714.269854 298.53125 
L 716.814701 295.219598 
L 719.359547 293.542568 
L 721.904394 215.720111 
L 724.44924 232.872384 
L 726.994087 219.094755 
L 729.538933 223.051508 
L 732.08378 228.596766 
L 734.628626 213.798796 
L 737.173473 179.030902 
L 739.718319 170.246598 
L 742.263165 180.78616 
L 744.808012 184.851919 
L 747.352858 190.946801 
L 749.897705 249.608874 
L 752.442551 221.922894 
L 754.987398 209.809242 
L 757.532244 178.278741 
L 760.077091 166.879131 
L 762.621937 165.645697 
L 765.166784 153.00879 
L 767.71163 138.325731 
L 770.256477 138.5147 
L 772.801323 124.982669 
L 775.346169 122.185099 
L 777.891016 142.541457 
L 780.435862 139.817799 
L 782.980709 147.653714 
L 785.525555 133.134649 
L 788.070402 154.27603 
L 790.615248 168.243403 
L 793.160095 167.918489 
L 795.704941 188.835692 
L 798.249788 181.539059 
L 800.794634 168.442573 
L 803.33948 163.769633 
L 808.429173 140.50859 
L 810.97402 129.512738 
L 813.518866 124.160437 
L 816.063713 134.310604 
L 818.608559 143.796275 
L 821.153406 147.075009 
L 823.698252 146.379337 
L 826.243099 140.9989 
L 828.787945 155.250409 
L 831.332792 175.720649 
L 833.877638 168.202263 
L 836.422484 175.890292 
L 838.967331 195.49979 
L 841.512177 227.933604 
L 844.057024 212.412006 
L 846.60187 224.951883 
L 849.146717 178.580471 
L 851.691563 180.128224 
L 854.23641 186.805395 
L 856.781256 181.477055 
L 859.326103 190.473574 
L 861.870949 179.419689 
L 864.415795 191.82918 
L 864.415795 191.82918 
" clip-path="url(#p7fc8be2706)" style="fill: none; stroke: #008052; stroke-width: 1.5; stroke-linecap: square"/>
   </g>
   <g id="patch_3">
    <path d="M 65.46125 311.13125 
L 65.46125 33.93125 
" style="fill: none; stroke: #000000; stroke-width: 0.8; stroke-linejoin: miter; stroke-linecap: square"/>
   </g>
   <g id="patch_4">
    <path d="M 902.46125 311.13125 
L 902.46125 33.93125 
" style="fill: none; stroke: #000000; stroke-width: 0.8; stroke-linejoin: miter; stroke-linecap: square"/>
   </g>
   <g id="patch_5">
    <path d="M 65.46125 311.13125 
L 902.46125 311.13125 
" style="fill: none; stroke: #000000; stroke-width: 0.8; stroke-linejoin: miter; stroke-linecap: square"/>
   </g>
   <g id="patch_6">
    <path d="M 65.46125 33.93125 
L 902.46125 33.93125 
" style="fill: none; stroke: #000000; stroke-width: 0.8; stroke-linejoin: miter; stroke-linecap: square"/>
   </g>
   <g id="text_15">
    <!-- Synthetisch erzeugter Fahrzyklus -->
    <g transform="translate(338.17375 21.93125) scale(0.2 -0.2)">
     <defs>
      <path id="Lato-Regular-79" d="M 1418 -957 
Q 1389 -1021 1345 -1059 
Q 1302 -1098 1213 -1098 
L 790 -1098 
L 1382 189 
L 45 3242 
L 538 3242 
Q 611 3242 652 3205 
Q 694 3168 714 3123 
L 1581 1082 
Q 1610 1011 1630 940 
Q 1651 870 1667 797 
Q 1690 870 1712 940 
Q 1734 1011 1763 1085 
L 2605 3123 
Q 2624 3174 2670 3208 
Q 2717 3242 2771 3242 
L 3226 3242 
L 1418 -957 
z
" transform="scale(0.015625)"/>
      <path id="Lato-Regular-72" d="M 467 0 
L 467 3242 
L 794 3242 
Q 886 3242 921 3206 
Q 957 3171 970 3085 
L 1008 2579 
Q 1174 2918 1419 3108 
Q 1664 3299 1994 3299 
Q 2128 3299 2237 3268 
Q 2346 3238 2438 3184 
L 2365 2758 
Q 2342 2678 2266 2678 
Q 2221 2678 2128 2708 
Q 2035 2739 1869 2739 
Q 1571 2739 1371 2566 
Q 1171 2394 1037 2064 
L 1037 0 
L 467 0 
z
" transform="scale(0.015625)"/>
      <path id="Lato-Regular-7a" d="M 2730 2998 
Q 2730 2938 2707 2882 
Q 2685 2826 2650 2781 
L 896 445 
L 2666 445 
L 2666 0 
L 224 0 
L 224 237 
Q 224 278 245 334 
Q 266 390 304 442 
L 2067 2794 
L 323 2794 
L 323 3242 
L 2730 3242 
L 2730 2998 
z
" transform="scale(0.015625)"/>
      <path id="Lato-Regular-46" d="M 3382 4586 
L 3382 4080 
L 1181 4080 
L 1181 2477 
L 3062 2477 
L 3062 1971 
L 1181 1971 
L 1181 0 
L 557 0 
L 557 4586 
L 3382 4586 
z
" transform="scale(0.015625)"/>
      <path id="Lato-Regular-61" d="M 2848 0 
L 2595 0 
Q 2512 0 2461 25 
Q 2410 51 2394 134 
L 2330 435 
Q 2202 320 2080 229 
Q 1958 138 1824 75 
Q 1690 13 1538 -19 
Q 1386 -51 1200 -51 
Q 1011 -51 846 1 
Q 682 54 560 160 
Q 438 266 366 427 
Q 294 589 294 810 
Q 294 1002 400 1179 
Q 506 1357 741 1494 
Q 976 1632 1357 1720 
Q 1738 1808 2288 1821 
L 2288 2074 
Q 2288 2451 2126 2644 
Q 1965 2838 1648 2838 
Q 1440 2838 1297 2785 
Q 1155 2733 1051 2667 
Q 947 2602 872 2549 
Q 797 2496 723 2496 
Q 666 2496 622 2526 
Q 579 2557 554 2602 
L 451 2784 
Q 720 3043 1030 3171 
Q 1341 3299 1718 3299 
Q 1990 3299 2201 3209 
Q 2413 3120 2557 2960 
Q 2701 2800 2774 2573 
Q 2848 2346 2848 2074 
L 2848 0 
z
M 1370 349 
Q 1520 349 1645 379 
Q 1770 410 1880 466 
Q 1990 522 2091 602 
Q 2192 682 2288 784 
L 2288 1459 
Q 1894 1446 1619 1396 
Q 1344 1347 1171 1267 
Q 998 1187 920 1078 
Q 842 970 842 835 
Q 842 707 883 614 
Q 925 522 995 462 
Q 1066 403 1162 376 
Q 1258 349 1370 349 
z
" transform="scale(0.015625)"/>
      <path id="Lato-Regular-6c" d="M 1101 4714 
L 1101 0 
L 531 0 
L 531 4714 
L 1101 4714 
z
" transform="scale(0.015625)"/>
     </defs>
     <use xlink:href="#Lato-Regular-53"/>
     <use xlink:href="#Lato-Regular-79" x="53"/>
     <use xlink:href="#Lato-Regular-6e" x="104.200012"/>
     <use xlink:href="#Lato-Regular-74" x="159.800018"/>
     <use xlink:href="#Lato-Regular-68" x="197.100021"/>
     <use xlink:href="#Lato-Regular-65" x="252.700027"/>
     <use xlink:href="#Lato-Regular-74" x="305.100037"/>
     <use xlink:href="#Lato-Regular-69" x="342.40004"/>
     <use xlink:href="#Lato-Regular-73" x="368.000046"/>
     <use xlink:href="#Lato-Regular-63" x="411.400055"/>
     <use xlink:href="#Lato-Regular-68" x="458.100052"/>
     <use xlink:href="#Lato-Regular-20" x="513.700058"/>
     <use xlink:href="#Lato-Regular-65" x="533.000061"/>
     <use xlink:href="#Lato-Regular-72" x="585.40007"/>
     <use xlink:href="#Lato-Regular-7a" x="625.700073"/>
     <use xlink:href="#Lato-Regular-65" x="671.90007"/>
     <use xlink:href="#Lato-Regular-75" x="724.300079"/>
     <use xlink:href="#Lato-Regular-67" x="779.900085"/>
     <use xlink:href="#Lato-Regular-74" x="831.000092"/>
     <use xlink:href="#Lato-Regular-65" x="868.300095"/>
     <use xlink:href="#Lato-Regular-72" x="920.700104"/>
     <use xlink:href="#Lato-Regular-20" x="961.000107"/>
     <use xlink:href="#Lato-Regular-46" x="980.30011"/>
     <use xlink:href="#Lato-Regular-61" x="1036.900116"/>
     <use xlink:href="#Lato-Regular-68" x="1087.600128"/>
     <use xlink:href="#Lato-Regular-72" x="1143.200134"/>
     <use xlink:href="#Lato-Regular-7a" x="1183.500137"/>
     <use xlink:href="#Lato-Regular-79" x="1229.700134"/>
     <use xlink:href="#Lato-Regular-6b" x="1280.900146"/>
     <use xlink:href="#Lato-Regular-6c" x="1333.300156"/>
     <use xlink:href="#Lato-Regular-75" x="1358.900162"/>
     <use xlink:href="#Lato-Regular-73" x="1414.500168"/>
    </g>
   </g>
  </g>
 </g>
 <defs>
  <clipPath id="p7fc8be2706">
   <rect x="65.46125" y="33.93125" width="837" height="277.2"/>
  </clipPath>
 </defs>
</svg>
