<?xml version="1.0" encoding="utf-8" standalone="no"?>
<!DOCTYPE svg PUBLIC "-//W3C//DTD SVG 1.1//EN"
  "http://www.w3.org/Graphics/SVG/1.1/DTD/svg11.dtd">
<svg xmlns:xlink="http://www.w3.org/1999/xlink" width="872.32pt" height="309.4975pt" viewBox="0 0 872.32 309.4975" xmlns="http://www.w3.org/2000/svg" version="1.1">
 <metadata>
  <rdf:RDF xmlns:dc="http://purl.org/dc/elements/1.1/" xmlns:cc="http://creativecommons.org/ns#" xmlns:rdf="http://www.w3.org/1999/02/22-rdf-syntax-ns#">
   <cc:Work>
    <dc:type rdf:resource="http://purl.org/dc/dcmitype/StillImage"/>
    <dc:date>2023-02-13T11:31:32.282959</dc:date>
    <dc:format>image/svg+xml</dc:format>
    <dc:creator>
     <cc:Agent>
      <dc:title>Matplotlib v3.6.2, https://matplotlib.org/</dc:title>
     </cc:Agent>
    </dc:creator>
   </cc:Work>
  </rdf:RDF>
 </metadata>
 <defs>
  <style type="text/css">*{stroke-linejoin: round; stroke-linecap: butt}</style>
 </defs>
 <g id="figure_1">
  <g id="patch_1">
   <path d="M 0 309.4975 
L 872.32 309.4975 
L 872.32 0 
L 0 0 
z
" style="fill: #ffffff"/>
  </g>
  <g id="axes_1">
   <g id="patch_2">
    <path d="M 28.12 284.4 
L 865.12 284.4 
L 865.12 7.2 
L 28.12 7.2 
z
" style="fill: #ffffff"/>
   </g>
   <g id="matplotlib.axis_1">
    <g id="xtick_1">
     <g id="line2d_1">
      <defs>
       <path id="mb33911e5fb" d="M 0 0 
L 0 3.5 
" style="stroke: #000000; stroke-width: 0.8"/>
      </defs>
      <g>
       <use xlink:href="#mb33911e5fb" x="63.620608" y="284.4" style="stroke: #000000; stroke-width: 0.8"/>
      </g>
     </g>
     <g id="text_1">
      <!-- 0 -->
      <g transform="translate(60.140608 300.23875) scale(0.12 -0.12)">
       <defs>
        <path id="Lato-Regular-30" d="M 3520 2291 
Q 3520 1690 3390 1250 
Q 3261 810 3037 522 
Q 2813 234 2507 93 
Q 2202 -48 1853 -48 
Q 1501 -48 1198 93 
Q 896 234 672 522 
Q 448 810 320 1250 
Q 192 1690 192 2291 
Q 192 2893 320 3334 
Q 448 3776 672 4065 
Q 896 4355 1198 4496 
Q 1501 4637 1853 4637 
Q 2202 4637 2507 4496 
Q 2813 4355 3037 4065 
Q 3261 3776 3390 3334 
Q 3520 2893 3520 2291 
z
M 2928 2291 
Q 2928 2816 2840 3173 
Q 2752 3530 2603 3747 
Q 2454 3965 2259 4059 
Q 2064 4154 1853 4154 
Q 1642 4154 1446 4059 
Q 1251 3965 1104 3747 
Q 957 3530 869 3173 
Q 781 2816 781 2291 
Q 781 1766 869 1411 
Q 957 1056 1104 838 
Q 1251 621 1446 526 
Q 1642 432 1853 432 
Q 2064 432 2259 526 
Q 2454 621 2603 838 
Q 2752 1056 2840 1411 
Q 2928 1766 2928 2291 
z
" transform="scale(0.015625)"/>
       </defs>
       <use xlink:href="#Lato-Regular-30"/>
      </g>
     </g>
    </g>
    <g id="xtick_2">
     <g id="line2d_2">
      <g>
       <use xlink:href="#mb33911e5fb" x="190.862931" y="284.4" style="stroke: #000000; stroke-width: 0.8"/>
      </g>
     </g>
     <g id="text_2">
      <!-- 5 -->
      <g transform="translate(187.382931 300.23875) scale(0.12 -0.12)">
       <defs>
        <path id="Lato-Regular-35" d="M 3130 4336 
Q 3130 4214 3053 4136 
Q 2976 4058 2794 4058 
L 1354 4058 
L 1142 2854 
Q 1501 2931 1805 2931 
Q 2163 2931 2436 2825 
Q 2710 2720 2896 2534 
Q 3082 2349 3176 2096 
Q 3270 1843 3270 1546 
Q 3270 1181 3142 886 
Q 3014 592 2792 382 
Q 2570 173 2269 61 
Q 1968 -51 1619 -51 
Q 1418 -51 1232 -11 
Q 1046 29 886 96 
Q 726 163 588 249 
Q 451 336 346 432 
L 518 675 
Q 576 758 672 758 
Q 733 758 814 708 
Q 896 659 1011 598 
Q 1126 538 1281 488 
Q 1437 438 1651 438 
Q 1891 438 2083 515 
Q 2275 592 2411 734 
Q 2547 877 2620 1075 
Q 2694 1274 2694 1520 
Q 2694 1734 2632 1907 
Q 2570 2080 2443 2201 
Q 2317 2323 2128 2390 
Q 1939 2458 1686 2458 
Q 1514 2458 1328 2429 
Q 1142 2400 944 2336 
L 586 2442 
L 957 4586 
L 3130 4586 
L 3130 4336 
z
" transform="scale(0.015625)"/>
       </defs>
       <use xlink:href="#Lato-Regular-35"/>
      </g>
     </g>
    </g>
    <g id="xtick_3">
     <g id="line2d_3">
      <g>
       <use xlink:href="#mb33911e5fb" x="318.105254" y="284.4" style="stroke: #000000; stroke-width: 0.8"/>
      </g>
     </g>
     <g id="text_3">
      <!-- 10 -->
      <g transform="translate(311.145254 300.23875) scale(0.12 -0.12)">
       <defs>
        <path id="Lato-Regular-31" d="M 918 435 
L 1904 435 
L 1904 3562 
Q 1904 3702 1914 3846 
L 1094 3146 
Q 1062 3120 1030 3109 
Q 998 3098 970 3098 
Q 922 3098 883 3118 
Q 845 3139 826 3168 
L 646 3414 
L 2010 4595 
L 2474 4595 
L 2474 435 
L 3376 435 
L 3376 0 
L 918 0 
L 918 435 
z
" transform="scale(0.015625)"/>
       </defs>
       <use xlink:href="#Lato-Regular-31"/>
       <use xlink:href="#Lato-Regular-30" x="58"/>
      </g>
     </g>
    </g>
    <g id="xtick_4">
     <g id="line2d_4">
      <g>
       <use xlink:href="#mb33911e5fb" x="445.347577" y="284.4" style="stroke: #000000; stroke-width: 0.8"/>
      </g>
     </g>
     <g id="text_4">
      <!-- 15 -->
      <g transform="translate(438.387577 300.23875) scale(0.12 -0.12)">
       <use xlink:href="#Lato-Regular-31"/>
       <use xlink:href="#Lato-Regular-35" x="58"/>
      </g>
     </g>
    </g>
    <g id="xtick_5">
     <g id="line2d_5">
      <g>
       <use xlink:href="#mb33911e5fb" x="572.5899" y="284.4" style="stroke: #000000; stroke-width: 0.8"/>
      </g>
     </g>
     <g id="text_5">
      <!-- 20 -->
      <g transform="translate(565.6299 300.23875) scale(0.12 -0.12)">
       <defs>
        <path id="Lato-Regular-32" d="M 1923 4637 
Q 2214 4637 2467 4550 
Q 2720 4464 2904 4299 
Q 3088 4134 3193 3897 
Q 3299 3661 3299 3360 
Q 3299 3104 3222 2886 
Q 3146 2669 3014 2469 
Q 2883 2269 2712 2081 
Q 2541 1894 2349 1699 
L 1142 464 
Q 1270 499 1401 520 
Q 1533 541 1654 541 
L 3190 541 
Q 3283 541 3337 486 
Q 3392 432 3392 346 
L 3392 0 
L 333 0 
L 333 195 
Q 333 256 357 320 
Q 381 384 435 438 
L 1904 1914 
Q 2086 2099 2236 2270 
Q 2387 2442 2494 2614 
Q 2602 2787 2659 2964 
Q 2717 3142 2717 3344 
Q 2717 3546 2653 3698 
Q 2589 3850 2477 3949 
Q 2365 4048 2214 4097 
Q 2064 4147 1891 4147 
Q 1718 4147 1571 4096 
Q 1424 4045 1310 3953 
Q 1197 3862 1118 3737 
Q 1040 3613 1008 3462 
Q 982 3370 931 3328 
Q 880 3286 797 3286 
Q 781 3286 763 3288 
Q 746 3290 723 3293 
L 426 3344 
Q 470 3658 598 3899 
Q 726 4141 923 4304 
Q 1120 4467 1374 4552 
Q 1629 4637 1923 4637 
z
" transform="scale(0.015625)"/>
       </defs>
       <use xlink:href="#Lato-Regular-32"/>
       <use xlink:href="#Lato-Regular-30" x="58"/>
      </g>
     </g>
    </g>
    <g id="xtick_6">
     <g id="line2d_6">
      <g>
       <use xlink:href="#mb33911e5fb" x="699.832223" y="284.4" style="stroke: #000000; stroke-width: 0.8"/>
      </g>
     </g>
     <g id="text_6">
      <!-- 25 -->
      <g transform="translate(692.872223 300.23875) scale(0.12 -0.12)">
       <use xlink:href="#Lato-Regular-32"/>
       <use xlink:href="#Lato-Regular-35" x="58"/>
      </g>
     </g>
    </g>
    <g id="xtick_7">
     <g id="line2d_7">
      <g>
       <use xlink:href="#mb33911e5fb" x="827.074545" y="284.4" style="stroke: #000000; stroke-width: 0.8"/>
      </g>
     </g>
     <g id="text_7">
      <!-- 30 -->
      <g transform="translate(820.114545 300.23875) scale(0.12 -0.12)">
       <defs>
        <path id="Lato-Regular-33" d="M 1984 4637 
Q 2275 4637 2521 4553 
Q 2768 4470 2945 4316 
Q 3123 4163 3222 3945 
Q 3322 3728 3322 3462 
Q 3322 3245 3266 3073 
Q 3210 2902 3106 2772 
Q 3002 2643 2854 2553 
Q 2707 2464 2525 2410 
Q 2973 2291 3198 2012 
Q 3424 1734 3424 1315 
Q 3424 998 3304 745 
Q 3184 493 2976 315 
Q 2768 138 2491 43 
Q 2214 -51 1898 -51 
Q 1533 -51 1273 40 
Q 1014 131 835 291 
Q 656 451 541 670 
Q 426 890 346 1146 
L 589 1248 
Q 656 1277 723 1277 
Q 787 1277 836 1249 
Q 886 1222 912 1165 
Q 918 1152 924 1137 
Q 931 1123 938 1107 
Q 982 1014 1046 897 
Q 1110 781 1219 678 
Q 1328 576 1489 505 
Q 1651 435 1891 435 
Q 2131 435 2312 513 
Q 2493 592 2613 717 
Q 2733 842 2793 995 
Q 2854 1149 2854 1299 
Q 2854 1485 2804 1638 
Q 2755 1792 2625 1904 
Q 2496 2016 2267 2080 
Q 2038 2144 1680 2144 
L 1680 2557 
Q 1971 2560 2177 2621 
Q 2384 2682 2515 2787 
Q 2646 2893 2705 3040 
Q 2765 3187 2765 3366 
Q 2765 3565 2702 3712 
Q 2640 3859 2531 3955 
Q 2422 4051 2273 4099 
Q 2125 4147 1952 4147 
Q 1779 4147 1632 4096 
Q 1485 4045 1371 3953 
Q 1258 3862 1181 3736 
Q 1104 3610 1066 3462 
Q 1040 3370 989 3328 
Q 938 3286 858 3286 
Q 842 3286 824 3288 
Q 806 3290 784 3293 
L 486 3344 
Q 531 3658 659 3899 
Q 787 4141 984 4304 
Q 1181 4467 1435 4552 
Q 1690 4637 1984 4637 
z
" transform="scale(0.015625)"/>
       </defs>
       <use xlink:href="#Lato-Regular-33"/>
       <use xlink:href="#Lato-Regular-30" x="58"/>
      </g>
     </g>
    </g>
   </g>
   <g id="matplotlib.axis_2">
    <g id="ytick_1">
     <g id="line2d_8">
      <defs>
       <path id="ma789db4786" d="M 0 0 
L -3.5 0 
" style="stroke: #000000; stroke-width: 0.8"/>
      </defs>
      <g>
       <use xlink:href="#ma789db4786" x="28.12" y="256.761437" style="stroke: #000000; stroke-width: 0.8"/>
      </g>
     </g>
     <g id="text_8">
      <!-- −3 -->
      <g transform="translate(7.2 261.180812) scale(0.12 -0.12)">
       <defs>
        <path id="Lato-Regular-2212" d="M 474 2365 
L 3226 2365 
L 3226 1933 
L 474 1933 
L 474 2365 
z
" transform="scale(0.015625)"/>
       </defs>
       <use xlink:href="#Lato-Regular-2212"/>
       <use xlink:href="#Lato-Regular-33" x="58"/>
      </g>
     </g>
    </g>
    <g id="ytick_2">
     <g id="line2d_9">
      <g>
       <use xlink:href="#ma789db4786" x="28.12" y="208.294793" style="stroke: #000000; stroke-width: 0.8"/>
      </g>
     </g>
     <g id="text_9">
      <!-- −2 -->
      <g transform="translate(7.2 212.714168) scale(0.12 -0.12)">
       <use xlink:href="#Lato-Regular-2212"/>
       <use xlink:href="#Lato-Regular-32" x="58"/>
      </g>
     </g>
    </g>
    <g id="ytick_3">
     <g id="line2d_10">
      <g>
       <use xlink:href="#ma789db4786" x="28.12" y="159.82815" style="stroke: #000000; stroke-width: 0.8"/>
      </g>
     </g>
     <g id="text_10">
      <!-- −1 -->
      <g transform="translate(7.2 164.247525) scale(0.12 -0.12)">
       <use xlink:href="#Lato-Regular-2212"/>
       <use xlink:href="#Lato-Regular-31" x="58"/>
      </g>
     </g>
    </g>
    <g id="ytick_4">
     <g id="line2d_11">
      <g>
       <use xlink:href="#ma789db4786" x="28.12" y="111.361506" style="stroke: #000000; stroke-width: 0.8"/>
      </g>
     </g>
     <g id="text_11">
      <!-- 0 -->
      <g transform="translate(14.16 115.780881) scale(0.12 -0.12)">
       <use xlink:href="#Lato-Regular-30"/>
      </g>
     </g>
    </g>
    <g id="ytick_5">
     <g id="line2d_12">
      <g>
       <use xlink:href="#ma789db4786" x="28.12" y="62.894863" style="stroke: #000000; stroke-width: 0.8"/>
      </g>
     </g>
     <g id="text_12">
      <!-- 1 -->
      <g transform="translate(14.16 67.314238) scale(0.12 -0.12)">
       <use xlink:href="#Lato-Regular-31"/>
      </g>
     </g>
    </g>
    <g id="ytick_6">
     <g id="line2d_13">
      <g>
       <use xlink:href="#ma789db4786" x="28.12" y="14.428219" style="stroke: #000000; stroke-width: 0.8"/>
      </g>
     </g>
     <g id="text_13">
      <!-- 2 -->
      <g transform="translate(14.16 18.847594) scale(0.12 -0.12)">
       <use xlink:href="#Lato-Regular-32"/>
      </g>
     </g>
    </g>
   </g>
   <g id="line2d_14">
    <path d="M 66.165455 107.083787 
L 76.34484 107.083787 
L 78.889687 108.533202 
L 89.069073 108.533202 
L 91.613919 60.738597 
L 101.793305 60.738597 
L 104.338151 40.521125 
L 114.517537 40.521125 
L 117.062384 57.713762 
L 127.24177 57.713762 
L 129.786616 92.72672 
L 139.966002 92.72672 
L 142.510848 55.55309 
L 152.690234 55.55309 
L 155.235081 125.659162 
L 165.414466 125.659162 
L 167.959313 218.010946 
L 178.138699 218.010946 
L 180.683545 131.432088 
L 190.862931 131.432088 
L 193.407777 125.224009 
L 203.587163 125.224009 
L 206.13201 130.620884 
L 216.311396 130.620884 
L 218.856242 137.078575 
L 229.035628 137.078575 
L 231.580474 118.185798 
L 241.75986 118.185798 
L 244.304707 71.735902 
L 254.484092 71.735902 
L 257.028939 62.060699 
L 267.208325 62.060699 
L 269.753171 29.5468 
L 279.932557 29.5468 
L 282.477403 82.271793 
L 295.201636 82.271793 
L 297.746482 108.992248 
L 307.925868 108.992248 
L 310.470715 132.304803 
L 320.6501 132.304803 
L 323.194947 128.179336 
L 335.919179 128.179336 
L 338.464026 126.168305 
L 348.643411 126.168305 
L 351.188258 128.921013 
L 361.367644 128.921013 
L 363.91249 140.313056 
L 374.091876 140.313056 
L 376.636722 123.170132 
L 386.816108 123.170132 
L 389.360955 65.31203 
L 399.540341 65.31203 
L 402.085187 122.244147 
L 412.264573 122.244147 
L 414.809419 130.038969 
L 424.988805 130.038969 
L 427.533652 130.188227 
L 437.713037 130.188227 
L 440.257884 132.006273 
L 450.43727 132.006273 
L 452.982116 111.204648 
L 463.161502 111.204648 
L 465.706348 69.449486 
L 475.885734 69.449486 
L 478.430581 106.3995 
L 488.609967 106.3995 
L 491.154813 92.234197 
L 501.334199 92.234197 
L 503.879045 63.337879 
L 514.058431 63.337879 
L 516.603278 31.993888 
L 526.782663 31.993888 
L 529.32751 100.455162 
L 539.506896 100.455162 
L 542.051742 66.12321 
L 552.231128 66.12321 
L 554.775974 72.673466 
L 564.95536 72.673466 
L 567.500207 165.351221 
L 577.679593 165.351221 
L 580.224439 113.572826 
L 592.948671 113.572826 
L 595.493518 95.790211 
L 605.672904 95.790211 
L 608.21775 62.188508 
L 618.397136 62.188508 
L 620.941982 33.050217 
L 631.121368 33.050217 
L 633.666215 101.150684 
L 643.8456 101.150684 
L 646.390447 54.454534 
L 656.569833 54.454534 
L 659.114679 122.572579 
L 669.294065 122.572579 
L 671.838912 248.324057 
L 682.018297 248.324057 
L 684.563144 197.135855 
L 694.74253 197.135855 
L 697.287376 159.011625 
L 707.466762 159.011625 
L 710.011608 183.38206 
L 720.190994 183.38206 
L 722.735841 125.74356 
L 732.915227 125.74356 
L 735.460073 108.704898 
L 745.639459 108.704898 
L 748.184305 135.750403 
L 758.363691 135.750403 
L 760.908538 130.023269 
L 773.63277 130.023269 
L 776.177616 112.413082 
L 786.357002 112.413082 
L 788.901849 136.481253 
L 799.081234 136.481253 
L 801.626081 181.144301 
L 811.805467 181.144301 
L 814.350313 156.929538 
L 827.074545 156.929538 
L 827.074545 156.929538 
" clip-path="url(#p892d1fe31a)" style="fill: none; stroke: #008052; stroke-width: 1.5; stroke-linecap: square"/>
   </g>
   <g id="line2d_15">
    <path d="M 66.165455 96.339417 
L 68.710301 97.994514 
L 71.255147 102.213292 
L 73.799994 114.263645 
L 76.34484 124.608066 
L 78.889687 148.306084 
L 81.434533 141.089731 
L 83.97938 99.941405 
L 86.524226 94.329167 
L 89.069073 58.999622 
L 91.613919 46.974609 
L 94.158766 65.756066 
L 96.703612 66.482792 
L 99.248458 54.563456 
L 101.793305 69.916066 
L 104.338151 59.465972 
L 106.882998 51.690874 
L 109.427844 34.333419 
L 111.972691 28.380505 
L 114.517537 28.734855 
L 117.062384 34.554476 
L 119.60723 35.088265 
L 122.152077 35.842886 
L 124.696923 63.546037 
L 127.24177 119.537147 
L 129.786616 123.61444 
L 132.331462 104.21635 
L 134.876309 100.448744 
L 137.421155 73.927694 
L 139.966002 61.42637 
L 142.510848 63.827451 
L 145.055695 72.669375 
L 147.600541 47.824748 
L 150.145388 47.180872 
L 152.690234 46.263005 
L 155.235081 73.821937 
L 157.779927 83.292408 
L 160.324773 124.302351 
L 162.86962 168.318345 
L 165.414466 178.560771 
L 167.959313 201.176793 
L 170.504159 243.175837 
L 173.049006 238.716357 
L 175.593852 208.808412 
L 178.138699 198.177331 
L 180.683545 156.540199 
L 183.228392 122.758344 
L 185.773238 125.51874 
L 188.318085 110.801767 
L 190.862931 141.54139 
L 193.407777 127.552613 
L 195.952624 114.30024 
L 198.49747 113.186339 
L 201.042317 138.81745 
L 203.587163 132.263402 
L 206.13201 135.310326 
L 208.676856 133.167884 
L 211.221703 122.041476 
L 213.766549 120.076393 
L 216.311396 142.50834 
L 218.856242 149.561328 
L 221.401088 153.547728 
L 223.945935 145.999002 
L 226.490781 119.716002 
L 229.035628 116.568814 
L 234.125321 94.37665 
L 236.670167 120.085477 
L 239.215014 127.74588 
L 241.75986 143.484503 
L 244.304707 117.697287 
L 246.849553 67.562809 
L 249.3944 52.798373 
L 251.939246 60.350799 
L 254.484092 60.270241 
L 257.028939 64.62333 
L 259.573785 73.792554 
L 262.118632 69.092028 
L 264.663478 46.410721 
L 267.208325 56.384861 
L 272.298018 19.8 
L 274.842864 21.323862 
L 277.387711 39.223522 
L 279.932557 29.484308 
L 282.477403 58.154666 
L 285.02225 53.601068 
L 287.567096 84.89655 
L 292.656789 111.607194 
L 295.201636 103.099486 
L 297.746482 93.338383 
L 300.291329 101.316431 
L 302.836175 112.353009 
L 305.381022 115.791479 
L 307.925868 122.161935 
L 310.470715 110.14443 
L 313.015561 116.312667 
L 315.560407 145.757563 
L 318.105254 147.548747 
L 320.6501 141.760609 
L 323.194947 166.055762 
L 325.739793 88.090068 
L 330.829486 112.275324 
L 333.374333 145.175133 
L 335.919179 129.300393 
L 338.464026 109.015597 
L 341.008872 111.832182 
L 343.553718 138.359735 
L 346.098565 131.927637 
L 348.643411 139.706376 
L 351.188258 132.848829 
L 353.733104 136.381894 
L 356.277951 118.573804 
L 358.822797 121.497288 
L 361.367644 135.303249 
L 363.91249 143.577001 
L 366.457337 156.501448 
L 369.002183 152.305745 
L 371.547029 124.487603 
L 374.091876 124.693484 
L 376.636722 109.348424 
L 379.181569 98.63972 
L 381.726415 128.290926 
L 386.816108 143.659146 
L 389.360955 92.198487 
L 391.905801 58.504876 
L 394.450648 53.253338 
L 396.995494 64.781044 
L 399.540341 57.822405 
L 402.085187 108.93054 
L 404.630033 132.736797 
L 407.17488 108.616602 
L 409.719726 135.797131 
L 412.264573 125.139662 
L 414.809419 117.778282 
L 417.354266 121.79559 
L 419.899112 135.441487 
L 422.443959 134.01477 
L 424.988805 141.164717 
L 427.533652 135.541043 
L 430.078498 122.084778 
L 432.623344 115.742436 
L 437.713037 146.552383 
L 440.257884 152.755774 
L 442.80273 153.21573 
L 445.347577 125.631323 
L 447.892423 121.072884 
L 450.43727 107.355651 
L 452.982116 108.256445 
L 455.526963 127.920249 
L 458.071809 134.47547 
L 460.616656 120.579045 
L 463.161502 64.79203 
L 465.706348 53.681125 
L 468.251195 63.026008 
L 470.796041 59.246291 
L 473.340888 79.784079 
L 475.885734 91.509927 
L 478.430581 93.500347 
L 480.975427 96.820326 
L 483.520274 102.618625 
L 486.06512 112.939801 
L 488.609967 126.118401 
L 491.154813 161.718752 
L 493.699659 106.42998 
L 496.244506 97.113044 
L 498.789352 50.661625 
L 501.334199 45.247586 
L 503.879045 86.82194 
L 506.423892 48.415627 
L 508.968738 74.778469 
L 511.513585 52.522092 
L 514.058431 54.151266 
L 516.603278 28.469865 
L 519.148124 24.570142 
L 521.692971 33.935072 
L 524.237817 41.079251 
L 526.782663 31.915113 
L 529.32751 54.854594 
L 531.872356 118.720352 
L 534.417203 123.836216 
L 536.962049 103.232479 
L 539.506896 101.632169 
L 542.051742 77.902416 
L 544.596589 64.431465 
L 547.141435 64.721226 
L 549.686282 74.059875 
L 552.231128 49.501067 
L 554.775974 55.004244 
L 557.320821 33.851054 
L 559.865667 72.808778 
L 562.410514 79.736707 
L 564.95536 121.966547 
L 567.500207 161.812073 
L 570.045053 180.148758 
L 572.5899 183.951795 
L 575.134746 167.015921 
L 577.679593 133.827558 
L 580.224439 127.418793 
L 585.314132 101.012938 
L 587.858978 103.105705 
L 590.403825 107.634193 
L 595.493518 149.897671 
L 598.038364 121.011252 
L 600.583211 93.441458 
L 603.128057 63.942901 
L 605.672904 50.657775 
L 608.21775 76.147251 
L 610.762597 57.086907 
L 613.307443 68.650544 
L 615.852289 56.608572 
L 618.397136 52.449267 
L 620.941982 27.792488 
L 623.486829 25.508508 
L 626.031675 36.108443 
L 628.576522 34.260825 
L 631.121368 41.580819 
L 633.666215 118.114652 
L 636.211061 123.775772 
L 638.755908 104.178395 
L 641.300754 91.05422 
L 643.8456 68.630384 
L 646.390447 67.179721 
L 648.935293 69.417576 
L 651.48014 53.041393 
L 654.024986 55.66967 
L 656.569833 26.964311 
L 659.114679 73.308466 
L 661.659526 81.516636 
L 664.204372 125.135074 
L 666.749219 155.449421 
L 669.294065 177.453298 
L 671.838912 189.680854 
L 674.383758 244.839764 
L 676.928604 271.8 
L 679.473451 268.488348 
L 682.018297 266.811318 
L 684.563144 188.988861 
L 687.10799 206.141134 
L 689.652837 192.363505 
L 692.197683 196.320258 
L 694.74253 201.865516 
L 697.287376 187.067546 
L 699.832223 152.299652 
L 702.377069 143.515348 
L 704.921915 154.05491 
L 707.466762 158.120669 
L 710.011608 164.215551 
L 712.556455 222.877624 
L 715.101301 195.191644 
L 717.646148 183.077992 
L 720.190994 151.547491 
L 722.735841 140.147881 
L 725.280687 138.914447 
L 727.825534 126.27754 
L 730.37038 111.594481 
L 732.915227 111.78345 
L 735.460073 98.251419 
L 738.004919 95.453849 
L 740.549766 115.810207 
L 743.094612 113.086549 
L 745.639459 120.922464 
L 748.184305 106.403399 
L 750.729152 127.54478 
L 753.273998 141.512153 
L 755.818845 141.187239 
L 758.363691 162.104442 
L 760.908538 154.807809 
L 763.453384 141.711323 
L 765.99823 137.038383 
L 771.087923 113.77734 
L 773.63277 102.781488 
L 776.177616 97.429187 
L 778.722463 107.579354 
L 781.267309 117.065025 
L 783.812156 120.343759 
L 786.357002 119.648087 
L 788.901849 114.26765 
L 791.446695 128.519159 
L 793.991542 148.989399 
L 796.536388 141.471013 
L 799.081234 149.159042 
L 801.626081 168.76854 
L 804.170927 201.202354 
L 806.715774 185.680756 
L 809.26062 198.220633 
L 811.805467 151.849221 
L 814.350313 153.396974 
L 816.89516 160.074145 
L 819.440006 154.745805 
L 821.984853 163.742324 
L 824.529699 152.688439 
L 827.074545 165.09793 
L 827.074545 165.09793 
" clip-path="url(#p892d1fe31a)" style="fill: none; stroke: #008052; stroke-opacity: 0.4; stroke-width: 1.5; stroke-linecap: square"/>
   </g>
   <g id="line2d_16">
    <path d="M 28.12 158.249183 
L 865.12 158.249183 
" clip-path="url(#p892d1fe31a)" style="fill: none; stroke-dasharray: 3.33,1.44; stroke-dashoffset: 0; stroke: #000000; stroke-opacity: 0.8; stroke-width: 0.9"/>
   </g>
   <g id="line2d_17">
    <path d="M 28.12 132.237413 
L 865.12 132.237413 
" clip-path="url(#p892d1fe31a)" style="fill: none; stroke-dasharray: 3.33,1.44; stroke-dashoffset: 0; stroke: #000000; stroke-opacity: 0.8; stroke-width: 0.9"/>
   </g>
   <g id="line2d_18">
    <path d="M 28.12 111.361506 
L 865.12 111.361506 
" clip-path="url(#p892d1fe31a)" style="fill: none; stroke-dasharray: 3.33,1.44; stroke-dashoffset: 0; stroke: #000000; stroke-opacity: 0.8; stroke-width: 0.9"/>
   </g>
   <g id="line2d_19">
    <path d="M 28.12 90.4856 
L 865.12 90.4856 
" clip-path="url(#p892d1fe31a)" style="fill: none; stroke-dasharray: 3.33,1.44; stroke-dashoffset: 0; stroke: #000000; stroke-opacity: 0.8; stroke-width: 0.9"/>
   </g>
   <g id="line2d_20">
    <path d="M 28.12 64.47383 
L 865.12 64.47383 
" clip-path="url(#p892d1fe31a)" style="fill: none; stroke-dasharray: 3.33,1.44; stroke-dashoffset: 0; stroke: #000000; stroke-opacity: 0.8; stroke-width: 0.9"/>
   </g>
   <g id="patch_3">
    <path d="M 28.12 284.4 
L 28.12 7.2 
" style="fill: none; stroke: #000000; stroke-width: 0.8; stroke-linejoin: miter; stroke-linecap: square"/>
   </g>
   <g id="patch_4">
    <path d="M 865.12 284.4 
L 865.12 7.2 
" style="fill: none; stroke: #000000; stroke-width: 0.8; stroke-linejoin: miter; stroke-linecap: square"/>
   </g>
   <g id="patch_5">
    <path d="M 28.12 284.4 
L 865.12 284.4 
" style="fill: none; stroke: #000000; stroke-width: 0.8; stroke-linejoin: miter; stroke-linecap: square"/>
   </g>
   <g id="patch_6">
    <path d="M 28.12 7.2 
L 865.12 7.2 
" style="fill: none; stroke: #000000; stroke-width: 0.8; stroke-linejoin: miter; stroke-linecap: square"/>
   </g>
   <g id="text_14">
    <!-- d -->
    <g style="fill: #ff0000" transform="translate(66.493819 102.237122) scale(0.15 -0.15)">
     <defs>
      <path id="DejaVuSans-64" d="M 2906 2969 
L 2906 4863 
L 3481 4863 
L 3481 0 
L 2906 0 
L 2906 525 
Q 2725 213 2448 61 
Q 2172 -91 1784 -91 
Q 1150 -91 751 415 
Q 353 922 353 1747 
Q 353 2572 751 3078 
Q 1150 3584 1784 3584 
Q 2172 3584 2448 3432 
Q 2725 3281 2906 2969 
z
M 947 1747 
Q 947 1113 1208 752 
Q 1469 391 1925 391 
Q 2381 391 2643 752 
Q 2906 1113 2906 1747 
Q 2906 2381 2643 2742 
Q 2381 3103 1925 3103 
Q 1469 3103 1208 2742 
Q 947 2381 947 1747 
z
" transform="scale(0.015625)"/>
     </defs>
     <use xlink:href="#DejaVuSans-64"/>
    </g>
   </g>
   <g id="text_15">
    <!-- d -->
    <g style="fill: #ff0000" transform="translate(79.218052 103.686537) scale(0.15 -0.15)">
     <use xlink:href="#DejaVuSans-64"/>
    </g>
   </g>
   <g id="text_16">
    <!-- f -->
    <g style="fill: #ff0000" transform="translate(94.063378 55.891933) scale(0.15 -0.15)">
     <defs>
      <path id="DejaVuSans-66" d="M 2375 4863 
L 2375 4384 
L 1825 4384 
Q 1516 4384 1395 4259 
Q 1275 4134 1275 3809 
L 1275 3500 
L 2222 3500 
L 2222 3053 
L 1275 3053 
L 1275 0 
L 697 0 
L 697 3053 
L 147 3053 
L 147 3500 
L 697 3500 
L 697 3744 
Q 697 4328 969 4595 
Q 1241 4863 1831 4863 
L 2375 4863 
z
" transform="scale(0.015625)"/>
     </defs>
     <use xlink:href="#DejaVuSans-66"/>
    </g>
   </g>
   <g id="text_17">
    <!-- f -->
    <g style="fill: #ff0000" transform="translate(106.78761 35.674461) scale(0.15 -0.15)">
     <use xlink:href="#DejaVuSans-66"/>
    </g>
   </g>
   <g id="text_18">
    <!-- f -->
    <g style="fill: #ff0000" transform="translate(119.511842 52.867098) scale(0.15 -0.15)">
     <use xlink:href="#DejaVuSans-66"/>
    </g>
   </g>
   <g id="text_19">
    <!-- d -->
    <g style="fill: #ff0000" transform="translate(130.114981 87.880055) scale(0.15 -0.15)">
     <use xlink:href="#DejaVuSans-64"/>
    </g>
   </g>
   <g id="text_20">
    <!-- f -->
    <g style="fill: #ff0000" transform="translate(144.960307 50.706426) scale(0.15 -0.15)">
     <use xlink:href="#DejaVuSans-66"/>
    </g>
   </g>
   <g id="text_21">
    <!-- c -->
    <g style="fill: #ff0000" transform="translate(156.200945 120.812498) scale(0.15 -0.15)">
     <defs>
      <path id="DejaVuSans-63" d="M 3122 3366 
L 3122 2828 
Q 2878 2963 2633 3030 
Q 2388 3097 2138 3097 
Q 1578 3097 1268 2742 
Q 959 2388 959 1747 
Q 959 1106 1268 751 
Q 1578 397 2138 397 
Q 2388 397 2633 464 
Q 2878 531 3122 666 
L 3122 134 
Q 2881 22 2623 -34 
Q 2366 -91 2075 -91 
Q 1284 -91 818 406 
Q 353 903 353 1747 
Q 353 2603 823 3093 
Q 1294 3584 2113 3584 
Q 2378 3584 2631 3529 
Q 2884 3475 3122 3366 
z
" transform="scale(0.015625)"/>
     </defs>
     <use xlink:href="#DejaVuSans-63"/>
    </g>
   </g>
   <g id="text_22">
    <!-- a -->
    <g style="fill: #ff0000" transform="translate(168.452912 213.164282) scale(0.15 -0.15)">
     <defs>
      <path id="DejaVuSans-61" d="M 2194 1759 
Q 1497 1759 1228 1600 
Q 959 1441 959 1056 
Q 959 750 1161 570 
Q 1363 391 1709 391 
Q 2188 391 2477 730 
Q 2766 1069 2766 1631 
L 2766 1759 
L 2194 1759 
z
M 3341 1997 
L 3341 0 
L 2766 0 
L 2766 531 
Q 2569 213 2275 61 
Q 1981 -91 1556 -91 
Q 1019 -91 701 211 
Q 384 513 384 1019 
Q 384 1609 779 1909 
Q 1175 2209 1959 2209 
L 2766 2209 
L 2766 2266 
Q 2766 2663 2505 2880 
Q 2244 3097 1772 3097 
Q 1472 3097 1187 3025 
Q 903 2953 641 2809 
L 641 3341 
Q 956 3463 1253 3523 
Q 1550 3584 1831 3584 
Q 2591 3584 2966 3190 
Q 3341 2797 3341 1997 
z
" transform="scale(0.015625)"/>
     </defs>
     <use xlink:href="#DejaVuSans-61"/>
    </g>
   </g>
   <g id="text_23">
    <!-- c -->
    <g style="fill: #ff0000" transform="translate(181.64941 126.585424) scale(0.15 -0.15)">
     <use xlink:href="#DejaVuSans-63"/>
    </g>
   </g>
   <g id="text_24">
    <!-- c -->
    <g style="fill: #ff0000" transform="translate(194.373642 120.377345) scale(0.15 -0.15)">
     <use xlink:href="#DejaVuSans-63"/>
    </g>
   </g>
   <g id="text_25">
    <!-- c -->
    <g style="fill: #ff0000" transform="translate(207.097875 125.774219) scale(0.15 -0.15)">
     <use xlink:href="#DejaVuSans-63"/>
    </g>
   </g>
   <g id="text_26">
    <!-- b -->
    <g style="fill: #ff0000" transform="translate(219.184607 132.23191) scale(0.15 -0.15)">
     <defs>
      <path id="DejaVuSans-62" d="M 3116 1747 
Q 3116 2381 2855 2742 
Q 2594 3103 2138 3103 
Q 1681 3103 1420 2742 
Q 1159 2381 1159 1747 
Q 1159 1113 1420 752 
Q 1681 391 2138 391 
Q 2594 391 2855 752 
Q 3116 1113 3116 1747 
z
M 1159 2969 
Q 1341 3281 1617 3432 
Q 1894 3584 2278 3584 
Q 2916 3584 3314 3078 
Q 3713 2572 3713 1747 
Q 3713 922 3314 415 
Q 2916 -91 2278 -91 
Q 1894 -91 1617 61 
Q 1341 213 1159 525 
L 1159 0 
L 581 0 
L 581 4863 
L 1159 4863 
L 1159 2969 
z
" transform="scale(0.015625)"/>
     </defs>
     <use xlink:href="#DejaVuSans-62"/>
    </g>
   </g>
   <g id="text_27">
    <!-- c -->
    <g style="fill: #ff0000" transform="translate(232.546339 113.339134) scale(0.15 -0.15)">
     <use xlink:href="#DejaVuSans-63"/>
    </g>
   </g>
   <g id="text_28">
    <!-- e -->
    <g style="fill: #ff0000" transform="translate(244.779556 66.889237) scale(0.15 -0.15)">
     <defs>
      <path id="DejaVuSans-65" d="M 3597 1894 
L 3597 1613 
L 953 1613 
Q 991 1019 1311 708 
Q 1631 397 2203 397 
Q 2534 397 2845 478 
Q 3156 559 3463 722 
L 3463 178 
Q 3153 47 2828 -22 
Q 2503 -91 2169 -91 
Q 1331 -91 842 396 
Q 353 884 353 1716 
Q 353 2575 817 3079 
Q 1281 3584 2069 3584 
Q 2775 3584 3186 3129 
Q 3597 2675 3597 1894 
z
M 3022 2063 
Q 3016 2534 2758 2815 
Q 2500 3097 2075 3097 
Q 1594 3097 1305 2825 
Q 1016 2553 972 2059 
L 3022 2063 
z
" transform="scale(0.015625)"/>
     </defs>
     <use xlink:href="#DejaVuSans-65"/>
    </g>
   </g>
   <g id="text_29">
    <!-- f -->
    <g style="fill: #ff0000" transform="translate(259.478397 57.214035) scale(0.15 -0.15)">
     <use xlink:href="#DejaVuSans-66"/>
    </g>
   </g>
   <g id="text_30">
    <!-- f -->
    <g style="fill: #ff0000" transform="translate(272.20263 24.700136) scale(0.15 -0.15)">
     <use xlink:href="#DejaVuSans-66"/>
    </g>
   </g>
   <g id="text_31">
    <!-- e -->
    <g style="fill: #ff0000" transform="translate(284.224676 77.425128) scale(0.15 -0.15)">
     <use xlink:href="#DejaVuSans-65"/>
    </g>
   </g>
   <g id="text_32">
    <!-- d -->
    <g style="fill: #ff0000" transform="translate(298.074847 104.145583) scale(0.15 -0.15)">
     <use xlink:href="#DejaVuSans-64"/>
    </g>
   </g>
   <g id="text_33">
    <!-- b -->
    <g style="fill: #ff0000" transform="translate(310.799079 127.458139) scale(0.15 -0.15)">
     <use xlink:href="#DejaVuSans-62"/>
    </g>
   </g>
   <g id="text_34">
    <!-- c -->
    <g style="fill: #ff0000" transform="translate(325.433235 123.332672) scale(0.15 -0.15)">
     <use xlink:href="#DejaVuSans-63"/>
    </g>
   </g>
   <g id="text_35">
    <!-- c -->
    <g style="fill: #ff0000" transform="translate(339.42989 121.321641) scale(0.15 -0.15)">
     <use xlink:href="#DejaVuSans-63"/>
    </g>
   </g>
   <g id="text_36">
    <!-- c -->
    <g style="fill: #ff0000" transform="translate(352.154123 124.074348) scale(0.15 -0.15)">
     <use xlink:href="#DejaVuSans-63"/>
    </g>
   </g>
   <g id="text_37">
    <!-- b -->
    <g style="fill: #ff0000" transform="translate(364.240855 135.466392) scale(0.15 -0.15)">
     <use xlink:href="#DejaVuSans-62"/>
    </g>
   </g>
   <g id="text_38">
    <!-- c -->
    <g style="fill: #ff0000" transform="translate(377.602587 118.323467) scale(0.15 -0.15)">
     <use xlink:href="#DejaVuSans-63"/>
    </g>
   </g>
   <g id="text_39">
    <!-- e -->
    <g style="fill: #ff0000" transform="translate(389.835804 60.465365) scale(0.15 -0.15)">
     <use xlink:href="#DejaVuSans-65"/>
    </g>
   </g>
   <g id="text_40">
    <!-- c -->
    <g style="fill: #ff0000" transform="translate(403.051052 117.397482) scale(0.15 -0.15)">
     <use xlink:href="#DejaVuSans-63"/>
    </g>
   </g>
   <g id="text_41">
    <!-- c -->
    <g style="fill: #ff0000" transform="translate(415.775284 125.192305) scale(0.15 -0.15)">
     <use xlink:href="#DejaVuSans-63"/>
    </g>
   </g>
   <g id="text_42">
    <!-- c -->
    <g style="fill: #ff0000" transform="translate(428.499516 125.341563) scale(0.15 -0.15)">
     <use xlink:href="#DejaVuSans-63"/>
    </g>
   </g>
   <g id="text_43">
    <!-- c -->
    <g style="fill: #ff0000" transform="translate(441.223749 127.159608) scale(0.15 -0.15)">
     <use xlink:href="#DejaVuSans-63"/>
    </g>
   </g>
   <g id="text_44">
    <!-- d -->
    <g style="fill: #ff0000" transform="translate(453.310481 106.357983) scale(0.15 -0.15)">
     <use xlink:href="#DejaVuSans-64"/>
    </g>
   </g>
   <g id="text_45">
    <!-- e -->
    <g style="fill: #ff0000" transform="translate(466.181198 64.602821) scale(0.15 -0.15)">
     <use xlink:href="#DejaVuSans-65"/>
    </g>
   </g>
   <g id="text_46">
    <!-- d -->
    <g style="fill: #ff0000" transform="translate(478.758946 101.552836) scale(0.15 -0.15)">
     <use xlink:href="#DejaVuSans-64"/>
    </g>
   </g>
   <g id="text_47">
    <!-- d -->
    <g style="fill: #ff0000" transform="translate(491.483178 87.387533) scale(0.15 -0.15)">
     <use xlink:href="#DejaVuSans-64"/>
    </g>
   </g>
   <g id="text_48">
    <!-- f -->
    <g style="fill: #ff0000" transform="translate(506.328504 58.491214) scale(0.15 -0.15)">
     <use xlink:href="#DejaVuSans-66"/>
    </g>
   </g>
   <g id="text_49">
    <!-- f -->
    <g style="fill: #ff0000" transform="translate(519.052736 27.147224) scale(0.15 -0.15)">
     <use xlink:href="#DejaVuSans-66"/>
    </g>
   </g>
   <g id="text_50">
    <!-- d -->
    <g style="fill: #ff0000" transform="translate(529.655875 95.608497) scale(0.15 -0.15)">
     <use xlink:href="#DejaVuSans-64"/>
    </g>
   </g>
   <g id="text_51">
    <!-- e -->
    <g style="fill: #ff0000" transform="translate(542.526591 61.276546) scale(0.15 -0.15)">
     <use xlink:href="#DejaVuSans-65"/>
    </g>
   </g>
   <g id="text_52">
    <!-- e -->
    <g style="fill: #ff0000" transform="translate(555.250824 67.826802) scale(0.15 -0.15)">
     <use xlink:href="#DejaVuSans-65"/>
    </g>
   </g>
   <g id="text_53">
    <!-- a -->
    <g style="fill: #ff0000" transform="translate(567.993806 160.504557) scale(0.15 -0.15)">
     <use xlink:href="#DejaVuSans-61"/>
    </g>
   </g>
   <g id="text_54">
    <!-- c -->
    <g style="fill: #ff0000" transform="translate(582.462727 108.726161) scale(0.15 -0.15)">
     <use xlink:href="#DejaVuSans-63"/>
    </g>
   </g>
   <g id="text_55">
    <!-- d -->
    <g style="fill: #ff0000" transform="translate(595.821883 90.943547) scale(0.15 -0.15)">
     <use xlink:href="#DejaVuSans-64"/>
    </g>
   </g>
   <g id="text_56">
    <!-- f -->
    <g style="fill: #ff0000" transform="translate(610.667209 57.341844) scale(0.15 -0.15)">
     <use xlink:href="#DejaVuSans-66"/>
    </g>
   </g>
   <g id="text_57">
    <!-- f -->
    <g style="fill: #ff0000" transform="translate(623.391441 28.203552) scale(0.15 -0.15)">
     <use xlink:href="#DejaVuSans-66"/>
    </g>
   </g>
   <g id="text_58">
    <!-- d -->
    <g style="fill: #ff0000" transform="translate(633.994579 96.30402) scale(0.15 -0.15)">
     <use xlink:href="#DejaVuSans-64"/>
    </g>
   </g>
   <g id="text_59">
    <!-- f -->
    <g style="fill: #ff0000" transform="translate(648.839905 49.60787) scale(0.15 -0.15)">
     <use xlink:href="#DejaVuSans-66"/>
    </g>
   </g>
   <g id="text_60">
    <!-- c -->
    <g style="fill: #ff0000" transform="translate(660.080544 117.725915) scale(0.15 -0.15)">
     <use xlink:href="#DejaVuSans-63"/>
    </g>
   </g>
   <g id="text_61">
    <!-- a -->
    <g style="fill: #ff0000" transform="translate(672.332511 243.477392) scale(0.15 -0.15)">
     <use xlink:href="#DejaVuSans-61"/>
    </g>
   </g>
   <g id="text_62">
    <!-- a -->
    <g style="fill: #ff0000" transform="translate(685.056743 192.28919) scale(0.15 -0.15)">
     <use xlink:href="#DejaVuSans-61"/>
    </g>
   </g>
   <g id="text_63">
    <!-- a -->
    <g style="fill: #ff0000" transform="translate(697.780975 154.16496) scale(0.15 -0.15)">
     <use xlink:href="#DejaVuSans-61"/>
    </g>
   </g>
   <g id="text_64">
    <!-- a -->
    <g style="fill: #ff0000" transform="translate(710.505208 178.535396) scale(0.15 -0.15)">
     <use xlink:href="#DejaVuSans-61"/>
    </g>
   </g>
   <g id="text_65">
    <!-- c -->
    <g style="fill: #ff0000" transform="translate(723.701705 120.896896) scale(0.15 -0.15)">
     <use xlink:href="#DejaVuSans-63"/>
    </g>
   </g>
   <g id="text_66">
    <!-- d -->
    <g style="fill: #ff0000" transform="translate(735.788438 103.858234) scale(0.15 -0.15)">
     <use xlink:href="#DejaVuSans-64"/>
    </g>
   </g>
   <g id="text_67">
    <!-- b -->
    <g style="fill: #ff0000" transform="translate(748.51267 130.903738) scale(0.15 -0.15)">
     <use xlink:href="#DejaVuSans-62"/>
    </g>
   </g>
   <g id="text_68">
    <!-- c -->
    <g style="fill: #ff0000" transform="translate(763.146826 125.176604) scale(0.15 -0.15)">
     <use xlink:href="#DejaVuSans-63"/>
    </g>
   </g>
   <g id="text_69">
    <!-- c -->
    <g style="fill: #ff0000" transform="translate(777.143481 107.566418) scale(0.15 -0.15)">
     <use xlink:href="#DejaVuSans-63"/>
    </g>
   </g>
   <g id="text_70">
    <!-- b -->
    <g style="fill: #ff0000" transform="translate(789.230213 131.634588) scale(0.15 -0.15)">
     <use xlink:href="#DejaVuSans-62"/>
    </g>
   </g>
   <g id="text_71">
    <!-- a -->
    <g style="fill: #ff0000" transform="translate(802.11968 176.297636) scale(0.15 -0.15)">
     <use xlink:href="#DejaVuSans-61"/>
    </g>
   </g>
   <g id="text_72">
    <!-- b -->
    <g style="fill: #ff0000" transform="translate(814.678678 152.082873) scale(0.15 -0.15)">
     <use xlink:href="#DejaVuSans-62"/>
    </g>
   </g>
  </g>
 </g>
 <defs>
  <clipPath id="p892d1fe31a">
   <rect x="28.12" y="7.2" width="837" height="277.2"/>
  </clipPath>
 </defs>
</svg>
