<?xml version="1.0" encoding="utf-8" standalone="no"?>
<!DOCTYPE svg PUBLIC "-//W3C//DTD SVG 1.1//EN"
  "http://www.w3.org/Graphics/SVG/1.1/DTD/svg11.dtd">
<svg xmlns:xlink="http://www.w3.org/1999/xlink" width="293.4pt" height="125.28pt" viewBox="0 0 293.4 125.28" xmlns="http://www.w3.org/2000/svg" version="1.1">
 <metadata>
  <rdf:RDF xmlns:dc="http://purl.org/dc/elements/1.1/" xmlns:cc="http://creativecommons.org/ns#" xmlns:rdf="http://www.w3.org/1999/02/22-rdf-syntax-ns#">
   <cc:Work>
    <dc:type rdf:resource="http://purl.org/dc/dcmitype/StillImage"/>
    <dc:date>2023-02-13T11:31:32.016946</dc:date>
    <dc:format>image/svg+xml</dc:format>
    <dc:creator>
     <cc:Agent>
      <dc:title>Matplotlib v3.6.2, https://matplotlib.org/</dc:title>
     </cc:Agent>
    </dc:creator>
   </cc:Work>
  </rdf:RDF>
 </metadata>
 <defs>
  <style type="text/css">*{stroke-linejoin: round; stroke-linecap: butt}</style>
 </defs>
 <g id="figure_1">
  <g id="patch_1">
   <path d="M 0 125.28 
L 293.4 125.28 
L 293.4 0 
L 0 0 
z
" style="fill: #ffffff"/>
  </g>
  <g id="axes_1">
   <g id="line2d_1">
    <path d="M 19.881818 113.04 
L 22.443802 112.816599 
L 25.005785 112.555097 
L 27.567769 112.250252 
L 30.129752 111.896341 
L 32.691736 111.487166 
L 35.253719 111.016066 
L 37.815702 110.475934 
L 40.377686 109.85926 
L 42.939669 109.158175 
L 45.501653 108.364517 
L 48.063636 107.469916 
L 50.62562 106.465891 
L 53.187603 105.343963 
L 55.749587 104.095797 
L 58.31157 102.713343 
L 60.873554 101.189012 
L 63.435537 99.515853 
L 65.997521 97.687746 
L 68.559504 95.699606 
L 71.121488 93.547591 
L 73.683471 91.229309 
L 76.245455 88.744028 
L 78.807438 86.092867 
L 81.369421 83.278986 
L 83.931405 80.307748 
L 86.493388 77.186851 
L 89.055372 73.926444 
L 91.617355 70.53919 
L 94.179339 67.040296 
L 96.741322 63.447495 
L 99.303306 59.780978 
L 101.865289 56.063273 
L 104.427273 52.319075 
L 106.989256 48.575016 
L 109.55124 44.859388 
L 112.113223 41.201822 
L 114.675207 37.632906 
L 117.23719 34.183787 
L 119.799174 30.885726 
L 122.361157 27.769631 
L 124.92314 24.865589 
L 127.485124 22.202378 
L 130.047107 19.807001 
L 132.609091 17.704225 
L 135.171074 15.916164 
L 137.733058 14.461881 
L 140.295041 13.357062 
L 142.857025 12.613722 
L 145.419008 12.24 
L 147.980992 12.24 
L 150.542975 12.613722 
L 153.104959 13.357062 
L 155.666942 14.461881 
L 158.228926 15.916164 
L 160.790909 17.704225 
L 163.352893 19.807001 
L 165.914876 22.202378 
L 168.47686 24.865589 
L 171.038843 27.769631 
L 173.600826 30.885726 
L 176.16281 34.183787 
L 178.724793 37.632906 
L 181.286777 41.201822 
L 183.84876 44.859388 
L 186.410744 48.575016 
L 188.972727 52.319075 
L 191.534711 56.063273 
L 194.096694 59.780978 
L 196.658678 63.447495 
L 199.220661 67.040296 
L 201.782645 70.53919 
L 204.344628 73.926444 
L 206.906612 77.186851 
L 209.468595 80.307748 
L 212.030579 83.278986 
L 214.592562 86.092867 
L 217.154545 88.744028 
L 219.716529 91.229309 
L 222.278512 93.547591 
L 224.840496 95.699606 
L 227.402479 97.687746 
L 229.964463 99.515853 
L 232.526446 101.189012 
L 235.08843 102.713343 
L 237.650413 104.095797 
L 240.212397 105.343963 
L 242.77438 106.465891 
L 245.336364 107.469916 
L 247.898347 108.364517 
L 250.460331 109.158175 
L 253.022314 109.85926 
L 255.584298 110.475934 
L 258.146281 111.016066 
L 260.708264 111.487166 
L 263.270248 111.896341 
L 265.832231 112.250252 
L 268.394215 112.555097 
L 270.956198 112.816599 
L 273.518182 113.04 
" clip-path="url(#pff4809cdf2)" style="fill: none; stroke: #008052; stroke-width: 1.5; stroke-linecap: square"/>
   </g>
  </g>
 </g>
 <defs>
  <clipPath id="pff4809cdf2">
   <rect x="7.2" y="7.2" width="279" height="110.88"/>
  </clipPath>
 </defs>
</svg>
